<?xml version="1.0" encoding="UTF-8"?>
<svg id="Lag_2" data-name="Lag 2" xmlns="http://www.w3.org/2000/svg" viewBox="0 0 265.41 1080.16">
  <defs>
    <style>
      .cls-1 {
        fill: none;
        stroke: #0100d4;
        stroke-miterlimit: 10;
      }
    </style>
  </defs>
  <g id="Lag_1-2" data-name="Lag 1">
    <g>
      <path class="cls-1" d="M70.07.07c6.33,120.56,4.4,247.19,44.72,359.86,8.87,24.79,21.02,51.53,45.2,61.95,30.11,12.99,71.36-2.97,93.99,20.77,19.32,20.27,9.32,53.27-1.66,79.03-18.62,43.66-36.91,87.45-54.88,131.38-15.45,37.77-30.84,76.32-34.46,116.97-2.15,24.1-.1,48.35,1.95,72.46,7.33,86.24-96.14,150.89-94.85,237.58"/>
      <path class="cls-1" d="M67.84,1080.07c-1.42-84.82,102.24-148.03,94.77-232.4-2.17-24.49-4.5-49.1-2.67-73.58,1.21-16.13,4.17-31.95,8.25-47.55,6.36-24.32,15.44-48.12,24.79-71.58,5.7-14.31,11.52-28.58,17.48-42.8,12.7-30.27,26-60.21,38.95-90.38,11.01-25.71,20.9-58.5,2.38-78.97-6.74-7.44-15.24-11.17-24.6-13.18-17.49-3.8-38.04-1.65-56.27-6.43-3.44-.9-6.79-2.05-10.02-3.52-23.72-10.83-36.17-37.26-45.46-61.67-10.53-27.67-18.6-56.09-24.68-85.31-6.67-32.04-10.87-65-13.76-98.22-5.01-57.91-5.98-116.99-9.16-174.4"/>
      <path class="cls-1" d="M65.6,1080.07c-1.54-82.96,102.28-144.73,94.69-227.22-2.29-24.88-4.91-49.85-3.39-74.7,1-16.38,3.72-32.46,7.57-48.34,6.01-24.76,14.78-49.05,24.05-72.95,5.65-14.59,11.52-29.11,17.64-43.54,13.02-30.71,27.11-60.81,40.35-91.44,11.04-25.67,20.83-58.24,3.09-78.92-6.46-7.5-14.62-11.39-23.63-13.67-16.82-4.26-36.58-2.86-54.37-8.09-3.35-.98-6.63-2.2-9.8-3.73-23.27-11.24-36.01-37.36-45.72-61.39-11.01-27.25-19.72-55.11-26.29-84.03-7.22-31.72-11.72-64.61-14.77-97.77-5.27-57.69-6.08-116.93-9.41-174.21"/>
      <path class="cls-1" d="M63.36,1080.07c-1.67-81.09,102.3-141.42,94.61-222.04-2.41-25.26-5.31-50.59-4.11-75.82.79-16.63,3.26-32.97,6.89-49.13,5.65-25.19,14.11-49.98,23.31-74.32,5.61-14.86,11.52-29.64,17.79-44.28,13.35-31.15,28.22-61.41,41.75-92.5,11.07-25.62,20.76-57.98,3.8-78.87-6.18-7.56-14.01-11.62-22.65-14.15-16.14-4.73-35.13-4.07-52.48-9.75-3.27-1.07-6.47-2.35-9.58-3.94-22.81-11.64-35.85-37.45-45.98-61.12-11.49-26.83-20.84-54.14-27.9-82.76-7.77-31.4-12.57-64.22-15.79-97.31C67.49,116.62,66.85,57.22,63.36.07"/>
      <path class="cls-1" d="M61.12,1080.07c-1.8-79.23,102.3-138.11,94.53-216.86-2.53-25.65-5.71-51.33-4.83-76.94.58-16.87,2.81-33.48,6.2-49.91,5.29-25.63,13.44-50.9,22.57-75.69,5.57-15.14,11.52-30.17,17.95-45.02,13.68-31.59,29.34-62.02,43.14-93.56,11.1-25.57,20.74-57.75,4.52-78.82-5.88-7.63-13.4-11.86-21.67-14.64-15.47-5.21-33.67-5.28-50.58-11.42-3.18-1.15-6.32-2.51-9.36-4.15-22.35-12.05-35.69-37.55-46.24-60.84-11.97-26.4-21.95-53.16-29.51-81.48-8.32-31.08-13.42-63.82-16.8-96.85C65.25,116.65,64.77,57.09,61.12.07"/>
      <path class="cls-1" d="M58.88,1080.07c-1.93-77.36,102.29-134.8,94.44-211.68-2.66-26.03-6.11-52.08-5.55-78.06.37-17.12,2.36-33.99,5.52-50.7,4.93-26.06,12.78-51.83,21.83-77.06,5.52-15.41,11.52-30.7,18.1-45.76,14.01-32.03,30.45-62.62,44.54-94.62,11.13-25.53,20.68-57.5,5.23-78.76-5.59-7.69-12.79-12.09-20.69-15.13-14.8-5.68-32.22-6.5-48.68-13.08-3.1-1.23-6.16-2.66-9.15-4.36-21.9-12.45-35.53-37.65-46.5-60.56-12.45-25.98-23.07-52.19-31.12-80.2-8.86-30.75-14.27-63.43-17.81-96.39C63,116.68,62.69,56.96,58.88.07"/>
      <path class="cls-1" d="M56.64,1080.07c-2.05-75.5,102.27-131.49,94.36-206.5-2.78-26.42-6.52-52.82-6.27-79.18.16-17.37,1.9-34.5,4.84-51.48,4.57-26.5,12.11-52.76,21.09-78.43,5.48-15.69,11.52-31.23,18.26-46.5,14.33-32.47,31.63-63.19,45.94-95.68,11.21-25.46,20.62-57.25,5.94-78.71-5.3-7.76-12.18-12.33-19.71-15.61-14.13-6.16-30.76-7.71-46.78-14.74-3.02-1.32-6.01-2.82-8.93-4.57-21.44-12.86-35.37-37.75-46.76-60.28-12.92-25.55-24.19-51.21-32.73-78.93-9.41-30.43-15.12-63.04-18.83-95.94C60.75,116.71,60.61,56.83,56.64.07"/>
      <path class="cls-1" d="M54.41,1080.07c-2.18-73.63,102.23-128.18,94.28-201.32-2.91-26.8-6.92-53.56-6.99-80.3-.05-17.61,1.45-35.01,4.15-52.27,4.22-26.93,11.44-53.69,20.35-79.81,5.43-15.96,11.52-31.76,18.42-47.24,14.66-32.9,32.74-63.79,47.33-96.74,11.25-25.41,20.56-56.99,6.66-78.66-5.01-7.82-11.57-12.57-18.73-16.1-13.47-6.64-29.31-8.92-44.89-16.4-2.93-1.4-5.85-2.97-8.71-4.79-20.99-13.26-35.21-37.84-47.02-60-13.4-25.13-25.31-50.24-34.34-77.65-9.96-30.11-15.97-62.65-19.84-95.48C58.51,116.74,58.53,56.7,54.41.07"/>
      <path class="cls-1" d="M52.17,1080.07c-2.31-71.77,102.17-124.87,94.2-196.14-3.04-27.19-7.32-54.31-7.71-81.42-.25-17.86.99-35.51,3.47-53.06,3.86-27.37,10.78-54.61,19.6-81.18,5.39-16.24,11.52-32.29,18.57-47.98,14.99-33.34,33.86-64.39,48.73-97.81,11.28-25.36,20.49-56.73,7.37-78.61-4.73-7.88-10.96-12.81-17.75-16.59-12.8-7.13-27.85-10.13-42.99-18.06-2.85-1.48-5.69-3.13-8.49-5-20.53-13.67-35.05-37.94-47.28-59.72-13.88-24.7-26.42-49.26-35.95-76.37-10.51-29.79-16.82-62.26-20.85-95.02C56.26,116.77,56.45,56.57,52.17.07"/>
      <path class="cls-1" d="M49.93,1080.07c-2.44-69.9,102.11-121.56,94.12-190.96-3.17-27.57-7.72-55.05-8.43-82.54-.46-18.11.54-36.02,2.78-53.84,3.5-27.8,10.11-55.54,18.86-82.55,5.35-16.52,11.52-32.82,18.73-48.72,15.31-33.78,34.98-64.99,50.13-98.87,11.32-25.32,20.43-56.47,8.08-78.55-4.44-7.94-10.35-13.05-16.77-17.08-12.14-7.61-26.39-11.35-41.09-19.72-2.77-1.57-5.54-3.28-8.27-5.21-20.07-14.07-34.89-38.04-47.54-59.44-14.36-24.28-27.54-48.28-37.56-75.1-11.06-29.47-17.67-61.87-21.87-94.56C54.01,116.8,54.37,56.44,49.93.07"/>
      <path class="cls-1" d="M47.69,1080.07c-2.56-68.04,102.03-118.24,94.04-185.78-3.31-27.96-8.13-55.79-9.15-83.67-.67-18.36.08-36.53,2.1-54.63,3.14-28.23,9.44-56.47,18.12-83.92,5.3-16.79,11.52-33.35,18.88-49.46,15.64-34.22,36.1-65.59,51.52-99.93,11.35-25.27,20.37-56.21,8.8-78.5-4.15-8-9.74-13.29-15.8-17.56-11.47-8.1-24.94-12.56-39.19-21.38-2.68-1.65-5.38-3.43-8.06-5.42-19.62-14.47-34.73-38.14-47.8-59.16-14.84-23.85-28.66-47.31-39.17-73.82-11.61-29.15-18.52-61.48-22.88-94.11C51.77,116.83,52.29,56.31,47.69.07"/>
      <path class="cls-1" d="M45.45,1080.07c-2.69-66.17,101.94-114.93,93.96-180.6-3.44-28.34-8.53-56.54-9.87-84.79-.88-18.6-.37-37.04,1.42-55.42,2.79-28.67,8.78-57.4,17.38-85.29,5.26-17.07,11.52-33.88,19.04-50.2,15.97-34.66,37.21-66.19,52.92-100.99,11.38-25.22,20.31-55.95,9.51-78.45-3.87-8.06-9.13-13.53-14.82-18.05-10.81-8.59-23.48-13.77-37.3-23.04-2.6-1.73-5.22-3.59-7.84-5.63-19.16-14.88-34.57-38.23-48.05-58.89-15.32-23.43-29.78-46.33-40.78-72.54-12.16-28.83-19.37-61.09-23.9-93.65C49.52,116.85,50.21,56.18,45.45.07"/>
      <path class="cls-1" d="M43.22,1080.07c-2.82-64.31,101.84-111.61,93.88-175.42-3.58-28.73-8.93-57.28-10.59-85.91-1.09-18.85-.83-37.55.73-56.2,2.43-29.1,8.11-58.33,16.64-86.67,5.22-17.34,11.52-34.41,19.19-50.94,16.29-35.1,38.33-66.79,54.31-102.05,11.41-25.18,20.24-55.69,10.22-78.4-3.58-8.12-8.52-13.78-13.84-18.54-10.15-9.09-22.03-14.99-35.4-24.7-2.52-1.81-5.07-3.74-7.62-5.84-18.71-15.28-34.41-38.33-48.31-58.61-15.79-23-30.89-45.36-42.39-71.27-12.71-28.51-20.22-60.69-24.91-93.19C47.27,116.88,48.12,56.05,43.22.07"/>
      <path class="cls-1" d="M40.98,1080.07c-2.94-62.45,101.72-108.3,93.8-170.24-3.73-29.12-9.34-58.03-11.31-87.03-1.3-19.1-1.28-38.06.05-56.99,2.07-29.54,7.44-59.25,15.9-88.04,5.17-17.62,11.52-34.94,19.35-51.68,16.62-35.53,39.44-67.39,55.71-103.11,11.44-25.13,20.17-55.43,10.94-78.34-3.3-8.18-7.91-14.02-12.86-19.03-9.48-9.58-20.57-16.2-33.5-26.36-2.43-1.9-4.91-3.9-7.4-6.05-18.25-15.69-34.25-38.43-48.57-58.33-16.27-22.58-32.01-44.38-44-69.99-13.25-28.18-21.07-60.3-25.92-92.73C45.03,116.91,46.04,55.91,40.98.07"/>
      <path class="cls-1" d="M38.74,1080.07c-3.07-60.58,101.6-104.98,93.72-165.06-3.87-29.5-9.74-58.77-12.03-88.15-1.51-19.35-1.73-38.57-.64-57.77,1.71-29.97,6.78-60.18,15.16-89.41,5.13-17.89,11.52-35.47,19.5-52.42,16.95-35.97,40.56-67.99,57.11-104.17,11.47-25.08,20.11-55.16,11.65-78.29-3.01-8.24-7.3-14.27-11.88-19.51-8.81-10.09-19.12-17.41-31.61-28.03-2.35-1.98-4.75-4.05-7.19-6.26-17.8-16.09-34.1-38.53-48.83-58.05-16.75-22.15-33.13-43.41-45.61-68.71-13.8-27.86-21.92-59.91-26.94-92.28C42.78,116.94,43.96,55.78,38.74.07"/>
      <path class="cls-1" d="M36.5,1080.07c-3.2-58.72,101.47-101.66,93.64-159.88-4.02-29.89-10.14-59.51-12.75-89.27-1.72-19.59-2.19-39.07-1.32-58.56,1.35-30.41,6.11-61.11,14.42-90.78,5.08-18.17,11.52-36,19.66-53.15,17.28-36.41,41.67-68.59,58.5-105.23,11.5-25.04,20.04-54.9,12.37-78.24-2.73-8.3-6.69-14.52-10.9-20-8.15-10.59-17.66-18.62-29.71-29.69-2.26-2.06-4.6-4.2-6.97-6.47-17.34-16.5-33.94-38.62-49.09-57.77-17.23-21.73-34.25-42.43-47.22-67.44-14.35-27.54-22.77-59.52-27.95-91.82C40.53,116.97,41.88,55.65,36.5.07"/>
      <path class="cls-1" d="M34.26,1080.07c-3.33-56.85,101.32-98.34,93.56-154.7-4.17-30.27-10.54-60.26-13.47-90.39-1.93-19.84-2.64-39.58-2-59.35,1-30.84,5.44-62.04,13.68-92.15,5.04-18.45,11.52-36.53,19.82-53.89,17.6-36.85,42.78-69.19,59.9-106.29,11.53-24.99,19.97-54.64,13.08-78.19-2.44-8.36-6.08-14.78-9.92-20.49-7.47-11.1-16.2-19.84-27.81-31.35-2.18-2.15-4.44-4.36-6.75-6.68-16.88-16.9-33.78-38.72-49.35-57.49-17.71-21.3-35.36-41.45-48.83-66.16-14.9-27.22-23.62-59.13-28.96-91.36C38.28,117,39.8,55.52,34.26.07"/>
      <path class="cls-1" d="M32.03,1080.07c-3.45-54.99,101.17-95.02,93.47-149.52-4.33-30.65-10.95-61-14.19-91.51-2.13-20.09-3.1-40.09-2.69-60.13.64-31.28,4.78-62.96,12.94-93.52,5-18.72,11.52-37.06,19.97-54.63,17.93-37.29,43.89-69.8,61.3-107.36,11.56-24.95,19.89-54.37,13.79-78.13-2.16-8.41-5.46-15.03-8.95-20.98-6.8-11.61-14.75-21.05-25.91-33.01-2.1-2.23-4.29-4.51-6.53-6.89-16.43-17.31-33.62-38.82-49.61-57.21-18.18-20.88-36.48-40.48-50.44-64.88-15.45-26.9-24.47-58.74-29.98-90.9C36.04,117.03,37.72,55.39,32.03.07"/>
      <path class="cls-1" d="M29.79,1080.07c-3.58-53.12,101.01-91.7,93.39-144.34-4.49-31.04-11.35-61.74-14.91-92.63-2.34-20.34-3.55-40.6-3.37-60.92.28-31.71,4.11-63.89,12.2-94.9,4.95-19,11.52-37.59,20.13-55.37,18.26-37.73,45-70.4,62.69-108.42,11.59-24.9,19.82-54.1,14.51-78.08-1.88-8.47-4.85-15.28-7.97-21.46-6.12-12.12-13.29-22.26-24.02-34.67-2.01-2.31-4.13-4.67-6.31-7.1-15.97-17.71-33.46-38.92-49.87-56.93-18.66-20.46-37.6-39.5-52.05-63.6-16-26.58-25.32-58.35-30.99-90.45C33.79,117.05,35.64,55.26,29.79.07"/>
      <path class="cls-1" d="M27.55,1080.07c-3.71-51.26,100.84-88.37,93.31-139.15-4.66-31.42-11.75-62.49-15.63-93.75-2.55-20.58-4.01-41.11-4.05-61.71-.08-32.15,3.45-64.82,11.46-96.27,4.91-19.27,11.52-38.12,20.28-56.11,18.58-38.17,46.11-71,64.09-109.48,11.62-24.86,19.74-53.84,15.22-78.03-1.6-8.53-4.23-15.54-6.99-21.95-5.44-12.63-11.84-23.47-22.12-36.33-1.93-2.4-3.97-4.82-6.1-7.31-15.52-18.12-33.3-39.02-50.13-56.66-19.14-20.03-38.72-38.53-53.65-62.33-16.55-26.26-26.17-57.95-32.01-89.99C31.54,117.08,33.56,55.13,27.55.07"/>
      <path class="cls-1" d="M25.31,1080.07c-3.84-49.39,100.66-85.05,93.23-133.97-4.83-31.8-12.15-63.23-16.35-94.87-2.76-20.83-4.46-41.62-4.74-62.49-.43-32.58,2.78-65.75,10.72-97.64,4.86-19.55,11.52-38.65,20.44-56.85,18.91-38.6,47.22-71.61,65.49-110.54,11.64-24.81,19.67-53.57,15.93-77.98-1.31-8.59-3.61-15.79-6.01-22.44-4.75-13.15-10.38-24.69-20.22-37.99-1.85-2.48-3.82-4.98-5.88-7.52-15.06-18.52-33.14-39.11-50.39-56.38-19.62-19.61-39.84-37.55-55.26-61.05-17.1-25.94-27.02-57.56-33.02-89.53C29.3,117.11,31.48,55,25.31.07"/>
      <path class="cls-1" d="M23.07,1080.07c-3.96-47.53,100.47-81.72,93.15-128.79-5.01-32.18-12.56-63.97-17.07-95.99-2.97-21.08-4.92-42.12-5.42-63.28-.79-33.01,2.11-66.67,9.98-99.01,4.82-19.83,11.52-39.18,20.59-57.59,19.24-39.04,48.33-72.21,66.88-111.6,11.67-24.77,19.59-53.31,16.65-77.92-1.03-8.65-2.99-16.05-5.03-22.92-4.06-13.66-8.93-25.9-18.32-39.65-1.76-2.56-3.66-5.13-5.66-7.74-14.6-18.93-32.98-39.21-50.65-56.1-20.1-19.18-40.95-36.58-56.87-59.77-17.65-25.61-27.87-57.17-34.03-89.07C27.05,117.14,29.4,54.87,23.07.07"/>
      <path class="cls-1" d="M20.84,1080.07c-4.09-45.66,100.28-78.39,93.07-123.61-5.19-32.56-12.96-64.72-17.79-97.11-3.18-21.32-5.37-42.63-6.11-64.06-1.15-33.45,1.45-67.6,9.24-100.38,4.78-20.1,11.52-39.71,20.75-58.33,19.56-39.48,49.43-72.81,68.28-112.66,11.69-24.72,19.51-53.04,17.36-77.87-.75-8.71-2.36-16.3-4.05-23.41-3.37-14.17-7.47-27.11-16.43-41.31-1.68-2.65-3.5-5.28-5.44-7.95-14.15-19.33-32.82-39.31-50.91-55.82-20.57-18.76-42.07-35.6-58.48-58.5-18.19-25.29-28.72-56.78-35.05-88.62C24.8,117.17,27.32,54.74,20.84.07"/>
      <path class="cls-1" d="M18.6,1080.07c-4.22-43.8,100.08-75.06,92.99-118.43-5.38-32.94-13.36-65.46-18.51-98.23-3.39-21.57-5.83-43.14-6.79-64.85-1.51-33.88.78-68.53,8.5-101.75,4.73-20.38,11.52-40.24,20.91-59.07,19.89-39.92,50.54-73.42,69.68-113.72,11.72-24.68,19.43-52.78,18.07-77.82-.47-8.77-1.74-16.55-3.07-23.9-2.67-14.68-6.01-28.33-14.53-42.98-1.6-2.73-3.35-5.44-5.23-8.16-13.69-19.74-32.66-39.41-51.17-55.54-21.05-18.33-43.19-34.62-60.09-57.22-18.74-24.97-29.57-56.39-36.06-88.16C22.56,117.2,25.23,54.61,18.6.07"/>
      <path class="cls-1" d="M16.36,1080.07c-4.35-41.94,99.87-71.73,92.91-113.25-5.58-33.32-13.76-66.2-19.23-99.35-3.6-21.82-6.28-43.65-7.47-65.64-1.87-34.32.11-69.46,7.76-103.13,4.69-20.65,11.52-40.77,21.06-59.81,20.22-40.36,51.57-74.06,71.07-114.78,11.7-24.66,19.34-52.51,18.79-77.77-.19-8.82-1.11-16.8-2.09-24.39-1.97-15.18-4.56-29.54-12.63-44.64-1.51-2.81-3.19-5.59-5.01-8.37-13.24-20.14-32.5-39.5-51.43-55.26-21.53-17.91-44.31-33.65-61.7-55.94-19.29-24.65-30.42-56-37.07-87.7C20.31,117.23,23.15,54.47,16.36.07"/>
      <path class="cls-1" d="M14.12,1080.07c-4.47-40.07,99.65-68.4,92.83-108.07-5.8-33.69-14.17-66.95-19.95-100.47-3.81-22.07-6.73-44.16-8.16-66.42-2.22-34.75-.55-70.39,7.02-104.5,4.64-20.93,11.52-41.3,21.22-60.55,20.55-40.8,52.68-74.66,72.47-115.84,11.73-24.61,19.26-52.25,19.5-77.71.08-8.88-.48-17.05-1.12-24.87-1.27-15.69-3.1-30.75-10.74-46.3-1.43-2.89-3.04-5.75-4.79-8.58-12.78-20.55-32.34-39.6-51.69-54.98-22.01-17.48-45.42-32.67-63.31-54.67-19.84-24.33-31.27-55.61-38.09-87.25C18.06,117.26,21.07,54.34,14.12.07"/>
      <path class="cls-1" d="M11.88,1080.07c-4.6-38.21,99.43-65.07,92.75-102.89-6.02-34.06-14.57-67.69-20.67-101.6-4.01-22.31-7.19-44.67-8.84-67.21-2.58-35.19-1.22-71.31,6.28-105.87,4.6-21.2,11.52-41.83,21.37-61.29,20.87-41.23,53.79-75.26,73.86-116.91,11.76-24.57,19.17-51.99,20.22-77.66.36-8.94.14-17.3-.14-25.36-.57-16.19-1.65-31.96-8.84-47.96-1.35-2.98-2.88-5.9-4.57-8.79-12.32-20.95-32.19-39.7-51.95-54.7-22.49-17.06-46.54-31.7-64.92-53.39-20.39-24.01-32.12-55.22-39.1-86.79C15.82,117.28,18.99,54.21,11.88.07"/>
      <path class="cls-1" d="M9.64,1080.07c-4.73-36.34,99.2-61.73,92.67-97.71-6.26-34.43-14.97-68.43-21.39-102.72-4.22-22.56-7.64-45.18-9.53-67.99-2.94-35.62-1.89-72.24,5.54-107.24,4.56-21.48,11.52-42.36,21.53-62.03,21.2-41.67,54.9-75.87,75.26-117.97,11.79-24.52,19.08-51.72,20.93-77.61.64-9,.77-17.55.84-25.85.14-16.69-.19-33.18-6.94-49.62-1.26-3.06-2.72-6.06-4.35-9-11.87-21.36-32.03-39.8-52.21-54.43-22.97-16.63-47.66-30.72-66.53-52.11-20.94-23.69-32.97-54.82-40.12-86.33C13.57,117.31,16.91,54.08,9.64.07"/>
      <path class="cls-1" d="M7.41,1080.07c-4.86-34.48,98.97-58.39,92.58-92.53-6.51-34.8-15.38-69.18-22.11-103.84-4.43-22.81-8.1-45.68-10.21-68.78-3.3-36.06-2.55-73.17,4.8-108.61,4.51-21.76,11.52-42.89,21.68-62.77,21.53-42.11,56.01-76.47,76.66-119.03,11.82-24.48,19-51.46,21.64-77.56.92-9.06,1.4-17.8,1.82-26.34.84-17.19,1.26-34.39-5.04-51.28-1.18-3.14-2.57-6.21-4.14-9.21-11.41-21.76-31.87-39.89-52.47-54.15-23.44-16.21-48.78-29.75-68.14-50.84-21.49-23.37-33.82-54.43-41.13-85.87C11.32,117.34,14.83,53.95,7.41.07"/>
      <path class="cls-1" d="M5.17,1080.07c-4.98-32.61,98.73-55.05,92.5-87.35-6.78-35.16-15.78-69.92-22.83-104.96-4.64-23.06-8.55-46.19-10.89-69.57-3.65-36.49-3.22-74.1,4.06-109.99,4.47-22.03,11.52-43.42,21.84-63.51,21.85-42.55,57.13-77.07,78.05-120.09,11.85-24.43,18.87-51.21,22.36-77.5,1.18-9.12,2.03-18.04,2.8-26.82,1.55-17.69,2.72-35.6-3.15-52.94-1.09-3.23-2.41-6.36-3.92-9.42-10.96-22.17-31.71-39.99-52.73-53.87-23.92-15.78-49.89-28.77-69.75-49.56-22.04-23.04-34.66-54.04-42.14-85.42C9.07,117.37,12.75,53.82,5.17.07"/>
      <path class="cls-1" d="M2.93,1080.07c-5.11-30.75,98.49-51.71,92.42-82.17-7.07-35.51-16.18-70.66-23.55-106.08-4.85-23.3-9.01-46.7-11.58-70.35-4.01-36.92-3.89-75.02,3.32-111.36,4.43-22.31,11.52-43.95,22-64.25,22.18-42.99,58.24-77.67,79.45-121.15,11.88-24.38,18.8-50.95,23.07-77.45,1.47-9.19,2.67-18.29,3.78-27.31,2.27-18.18,4.17-36.81-1.25-54.6-1.01-3.31-2.25-6.52-3.7-9.63-10.5-22.57-31.55-40.09-52.99-53.59-24.4-15.36-51.01-27.79-71.36-48.28-22.58-22.72-35.51-53.65-43.16-84.96C6.83,117.4,10.67,53.69,2.93.07"/>
      <path class="cls-1" d="M.69,1080.07c-5.24-28.88,98.23-48.36,92.34-76.99-12.24-59.46-29.48-118.04-36.53-178.34-7.05-60.3-3.2-123.81,24.73-177.72,22.51-43.43,59.35-78.28,80.85-122.21,16.03-32.76,22.84-69.17,28.54-105.2,2.96-18.67,5.63-38.03.65-56.26-7.65-27.99-31.86-48.22-56.73-63.15-24.88-14.94-52.13-26.82-72.97-47.01-23.13-22.4-36.36-53.26-44.17-84.5C4.58,117.43,8.59,53.56.69.07"/>
    </g>
  </g>
</svg>