<?xml version="1.0" encoding="UTF-8"?>
<svg id="Lag_2" xmlns="http://www.w3.org/2000/svg" version="1.1" viewBox="0 0 350 1080.2">
  <!-- Generator: Adobe Illustrator 29.0.1, SVG Export Plug-In . SVG Version: 2.1.0 Build 192)  -->
  <defs>
    <style>
      .st0 {
        fill: none;
        stroke: #0100d4;
        stroke-miterlimit: 10;
      }
    </style>
  </defs>
  <g id="Lag_1-2">
    <g>
      <g>
        <path class="st0" d="M148.5,0c6.3,120.6,4.4,247.2,44.7,359.9,8.9,24.8,21,51.5,45.2,62,30.1,13,71.4-3,94,20.8,19.3,20.3,9.3,53.3-1.7,79-18.6,43.7-36.9,87.5-54.9,131.4-15.4,37.8-30.8,76.3-34.5,117-2.1,24.1-.1,48.3,1.9,72.5,7.3,86.2-96.1,150.9-94.8,237.6"/>
        <path class="st0" d="M146.3,1080.1c-1.4-84.8,102.2-148,94.8-232.4-2.2-24.5-4.5-49.1-2.7-73.6,1.2-16.1,4.2-32,8.2-47.5,6.4-24.3,15.4-48.1,24.8-71.6,5.7-14.3,11.5-28.6,17.5-42.8,12.7-30.3,26-60.2,39-90.4,11-25.7,20.9-58.5,2.4-79-6.7-7.4-15.2-11.2-24.6-13.2-17.5-3.8-38-1.6-56.3-6.4-3.4-.9-6.8-2-10-3.5-23.7-10.8-36.2-37.3-45.5-61.7-10.5-27.7-18.6-56.1-24.7-85.3-6.7-32-10.9-65-13.8-98.2-5-57.9-6-117-9.2-174.4"/>
        <path class="st0" d="M144,1080.1c-1.5-83,102.3-144.7,94.7-227.2-2.3-24.9-4.9-49.8-3.4-74.7,1-16.4,3.7-32.5,7.6-48.3,6-24.8,14.8-49,24.1-73,5.6-14.6,11.5-29.1,17.6-43.5,13-30.7,27.1-60.8,40.4-91.4,11-25.7,20.8-58.2,3.1-78.9-6.5-7.5-14.6-11.4-23.6-13.7-16.8-4.3-36.6-2.9-54.4-8.1-3.4-1-6.6-2.2-9.8-3.7-23.3-11.2-36-37.4-45.7-61.4-11-27.2-19.7-55.1-26.3-84-7.2-31.7-11.7-64.6-14.8-97.8-5.3-57.7-6.1-116.9-9.4-174.2"/>
        <path class="st0" d="M141.8,1080.1c-1.7-81.1,102.3-141.4,94.6-222-2.4-25.3-5.3-50.6-4.1-75.8.8-16.6,3.3-33,6.9-49.1,5.6-25.2,14.1-50,23.3-74.3,5.6-14.9,11.5-29.6,17.8-44.3,13.4-31.2,28.2-61.4,41.8-92.5,11.1-25.6,20.8-58,3.8-78.9-6.2-7.6-14-11.6-22.6-14.1-16.1-4.7-35.1-4.1-52.5-9.8-3.3-1.1-6.5-2.4-9.6-3.9-22.8-11.6-35.9-37.5-46-61.1-11.5-26.8-20.8-54.1-27.9-82.8-7.8-31.4-12.6-64.2-15.8-97.3-5.5-57.5-6.2-116.9-9.7-174"/>
        <path class="st0" d="M139.5,1080.1c-1.8-79.2,102.3-138.1,94.5-216.9-2.5-25.7-5.7-51.3-4.8-76.9.6-16.9,2.8-33.5,6.2-49.9,5.3-25.6,13.4-50.9,22.6-75.7,5.6-15.1,11.5-30.2,18-45,13.7-31.6,29.3-62,43.1-93.6,11.1-25.6,20.7-57.8,4.5-78.8-5.9-7.6-13.4-11.9-21.7-14.6-15.5-5.2-33.7-5.3-50.6-11.4-3.2-1.1-6.3-2.5-9.4-4.1-22.4-12-35.7-37.5-46.2-60.8-12-26.4-21.9-53.2-29.5-81.5-8.3-31.1-13.4-63.8-16.8-96.9-5.8-57.2-6.3-116.8-9.9-173.8"/>
        <path class="st0" d="M137.3,1080.1c-1.9-77.4,102.3-134.8,94.4-211.7-2.7-26-6.1-52.1-5.6-78.1.4-17.1,2.4-34,5.5-50.7,4.9-26.1,12.8-51.8,21.8-77.1,5.5-15.4,11.5-30.7,18.1-45.8,14-32,30.5-62.6,44.5-94.6,11.1-25.5,20.7-57.5,5.2-78.8-5.6-7.7-12.8-12.1-20.7-15.1-14.8-5.7-32.2-6.5-48.7-13.1-3.1-1.2-6.2-2.7-9.1-4.4-21.9-12.5-35.5-37.6-46.5-60.6-12.4-26-23.1-52.2-31.1-80.2-8.9-30.8-14.3-63.4-17.8-96.4-6.1-57-6.4-116.7-10.2-173.6"/>
        <path class="st0" d="M135.1,1080.1c-2.1-75.5,102.3-131.5,94.4-206.5-2.8-26.4-6.5-52.8-6.3-79.2.2-17.4,1.9-34.5,4.8-51.5,4.6-26.5,12.1-52.8,21.1-78.4,5.5-15.7,11.5-31.2,18.3-46.5,14.3-32.5,31.6-63.2,45.9-95.7,11.2-25.5,20.6-57.2,5.9-78.7-5.3-7.8-12.2-12.3-19.7-15.6-14.1-6.2-30.8-7.7-46.8-14.7-3-1.3-6-2.8-8.9-4.6-21.4-12.9-35.4-37.8-46.8-60.3-12.9-25.5-24.2-51.2-32.7-78.9-9.4-30.4-15.1-63-18.8-95.9-6.3-56.8-6.4-116.7-10.4-173.4"/>
        <path class="st0" d="M132.8,1080.1c-2.2-73.6,102.2-128.2,94.3-201.3-2.9-26.8-6.9-53.6-7-80.3,0-17.6,1.4-35,4.1-52.3,4.2-26.9,11.4-53.7,20.4-79.8,5.4-16,11.5-31.8,18.4-47.2,14.7-32.9,32.7-63.8,47.3-96.7,11.2-25.4,20.6-57,6.7-78.7-5-7.8-11.6-12.6-18.7-16.1-13.5-6.6-29.3-8.9-44.9-16.4-2.9-1.4-5.9-3-8.7-4.8-21-13.3-35.2-37.8-47-60-13.4-25.1-25.3-50.2-34.3-77.6-10-30.1-16-62.6-19.8-95.5-6.6-56.6-6.6-116.6-10.7-173.2"/>
        <path class="st0" d="M130.6,1080.1c-2.3-71.8,102.2-124.9,94.2-196.1-3-27.2-7.3-54.3-7.7-81.4-.2-17.9,1-35.5,3.5-53.1,3.9-27.4,10.8-54.6,19.6-81.2,5.4-16.2,11.5-32.3,18.6-48,15-33.3,33.9-64.4,48.7-97.8,11.3-25.4,20.5-56.7,7.4-78.6-4.7-7.9-11-12.8-17.8-16.6-12.8-7.1-27.9-10.1-43-18.1-2.9-1.5-5.7-3.1-8.5-5-20.5-13.7-35.1-37.9-47.3-59.7-13.9-24.7-26.4-49.3-35.9-76.4-10.5-29.8-16.8-62.3-20.9-95C134.7,116.7,134.9,56.5,130.6,0"/>
        <path class="st0" d="M128.3,1080.1c-2.4-69.9,102.1-121.6,94.1-191-3.2-27.6-7.7-55-8.4-82.5-.5-18.1.5-36,2.8-53.8,3.5-27.8,10.1-55.5,18.9-82.5,5.4-16.5,11.5-32.8,18.7-48.7,15.3-33.8,35-65,50.1-98.9,11.3-25.3,20.4-56.5,8.1-78.5-4.4-7.9-10.4-13-16.8-17.1-12.1-7.6-26.4-11.4-41.1-19.7-2.8-1.6-5.5-3.3-8.3-5.2-20.1-14.1-34.9-38-47.5-59.4-14.4-24.3-27.5-48.3-37.6-75.1-11.1-29.5-17.7-61.9-21.9-94.6-7.1-56.1-6.7-116.5-11.2-172.9"/>
        <path class="st0" d="M126.1,1080.1c-2.6-68,102-118.2,94-185.8-3.3-28-8.1-55.8-9.1-83.7-.7-18.4,0-36.5,2.1-54.6,3.1-28.2,9.4-56.5,18.1-83.9,5.3-16.8,11.5-33.3,18.9-49.5,15.6-34.2,36.1-65.6,51.5-99.9,11.4-25.3,20.4-56.2,8.8-78.5-4.1-8-9.7-13.3-15.8-17.6-11.5-8.1-24.9-12.6-39.2-21.4-2.7-1.6-5.4-3.4-8.1-5.4-19.6-14.5-34.7-38.1-47.8-59.2-14.8-23.9-28.7-47.3-39.2-73.8-11.6-29.1-18.5-61.5-22.9-94.1C130.1,116.8,130.6,56.3,126,0"/>
        <path class="st0" d="M123.9,1080.1c-2.7-66.2,101.9-114.9,94-180.6-3.4-28.3-8.5-56.5-9.9-84.8-.9-18.6-.4-37,1.4-55.4,2.8-28.7,8.8-57.4,17.4-85.3,5.3-17.1,11.5-33.9,19-50.2,16-34.7,37.2-66.2,52.9-101,11.4-25.2,20.3-56,9.5-78.5-3.9-8.1-9.1-13.5-14.8-18-10.8-8.6-23.5-13.8-37.3-23-2.6-1.7-5.2-3.6-7.8-5.6-19.2-14.9-34.6-38.2-48.1-58.9-15.3-23.4-29.8-46.3-40.8-72.5-12.2-28.8-19.4-61.1-23.9-93.6-7.6-55.7-6.9-116.4-11.7-172.5"/>
        <path class="st0" d="M121.6,1080.1c-2.8-64.3,101.8-111.6,93.9-175.4-3.6-28.7-8.9-57.3-10.6-85.9-1.1-18.8-.8-37.5.7-56.2,2.4-29.1,8.1-58.3,16.6-86.7,5.2-17.3,11.5-34.4,19.2-50.9,16.3-35.1,38.3-66.8,54.3-102,11.4-25.2,20.2-55.7,10.2-78.4-3.6-8.1-8.5-13.8-13.8-18.5-10.1-9.1-22-15-35.4-24.7-2.5-1.8-5.1-3.7-7.6-5.8-18.7-15.3-34.4-38.3-48.3-58.6-15.8-23-30.9-45.4-42.4-71.3-12.7-28.5-20.2-60.7-24.9-93.2-7.9-55.5-7-116.3-11.9-172.3"/>
        <path class="st0" d="M119.4,1080.1c-2.9-62.5,101.7-108.3,93.8-170.2-3.7-29.1-9.3-58-11.3-87-1.3-19.1-1.3-38.1,0-57,2.1-29.5,7.4-59.2,15.9-88,5.2-17.6,11.5-34.9,19.4-51.7,16.6-35.5,39.4-67.4,55.7-103.1,11.4-25.1,20.2-55.4,10.9-78.3-3.3-8.2-7.9-14-12.9-19-9.5-9.6-20.6-16.2-33.5-26.4-2.4-1.9-4.9-3.9-7.4-6-18.2-15.7-34.2-38.4-48.6-58.3-16.3-22.6-32-44.4-44-70-13.2-28.2-21.1-60.3-25.9-92.7-8.1-55.5-7-116.5-12.1-172.4"/>
        <path class="st0" d="M117.2,1080.1c-3.1-60.6,101.6-105,93.7-165.1-3.9-29.5-9.7-58.8-12-88.2-1.5-19.3-1.7-38.6-.6-57.8,1.7-30,6.8-60.2,15.2-89.4,5.1-17.9,11.5-35.5,19.5-52.4,16.9-36,40.6-68,57.1-104.2,11.5-25.1,20.1-55.2,11.6-78.3-3-8.2-7.3-14.3-11.9-19.5-8.8-10.1-19.1-17.4-31.6-28-2.4-2-4.8-4-7.2-6.3-17.8-16.1-34.1-38.5-48.8-58-16.8-22.1-33.1-43.4-45.6-68.7-13.8-27.9-21.9-59.9-26.9-92.3-8.5-54.9-7.3-116.1-12.5-171.9"/>
        <path class="st0" d="M114.9,1080.1c-3.2-58.7,101.5-101.7,93.6-159.9-4-29.9-10.1-59.5-12.8-89.3-1.7-19.6-2.2-39.1-1.3-58.6,1.4-30.4,6.1-61.1,14.4-90.8,5.1-18.2,11.5-36,19.7-53.2,17.3-36.4,41.7-68.6,58.5-105.2,11.5-25,20-54.9,12.4-78.2-2.7-8.3-6.7-14.5-10.9-20-8.1-10.6-17.7-18.6-29.7-29.7-2.3-2.1-4.6-4.2-7-6.5-17.3-16.5-33.9-38.6-49.1-57.8-17.2-21.7-34.2-42.4-47.2-67.4-14.4-27.5-22.8-59.5-27.9-91.8-8.7-54.7-7.3-116-12.7-171.7"/>
        <path class="st0" d="M112.7,1080.1c-3.3-56.8,101.3-98.3,93.6-154.7-4.2-30.3-10.5-60.3-13.5-90.4-1.9-19.8-2.6-39.6-2-59.3,1-30.8,5.4-62,13.7-92.2,5-18.5,11.5-36.5,19.8-53.9,17.6-36.8,42.8-69.2,59.9-106.3,11.5-25,20-54.6,13.1-78.2-2.4-8.4-6.1-14.8-9.9-20.5-7.5-11.1-16.2-19.8-27.8-31.4-2.2-2.1-4.4-4.4-6.8-6.7-16.9-16.9-33.8-38.7-49.4-57.5-17.7-21.3-35.4-41.5-48.8-66.2-14.9-27.2-23.6-59.1-29-91.4-8.9-54.4-7.4-115.9-12.9-171.4"/>
        <path class="st0" d="M110.4,1080.1c-3.4-55,101.2-95,93.5-149.5-4.3-30.7-10.9-61-14.2-91.5-2.1-20.1-3.1-40.1-2.7-60.1.6-31.3,4.8-63,12.9-93.5,5-18.7,11.5-37.1,20-54.6,17.9-37.3,43.9-69.8,61.3-107.4,11.6-25,19.9-54.4,13.8-78.1-2.2-8.4-5.5-15-9-21-6.8-11.6-14.8-21-25.9-33-2.1-2.2-4.3-4.5-6.5-6.9-16.4-17.3-33.6-38.8-49.6-57.2-18.2-20.9-36.5-40.5-50.4-64.9-15.4-26.9-24.5-58.7-30-90.9-9.1-54.5-7.5-116.1-13.2-171.5"/>
        <path class="st0" d="M108.2,1080.1c-3.6-53.1,101-91.7,93.4-144.3-4.5-31-11.4-61.7-14.9-92.6-2.3-20.3-3.6-40.6-3.4-60.9.3-31.7,4.1-63.9,12.2-94.9,4.9-19,11.5-37.6,20.1-55.4,18.3-37.7,45-70.4,62.7-108.4,11.6-24.9,19.8-54.1,14.5-78.1-1.9-8.5-4.9-15.3-8-21.5-6.1-12.1-13.3-22.3-24-34.7-2-2.3-4.1-4.7-6.3-7.1-16-17.7-33.5-38.9-49.9-56.9-18.7-20.5-37.6-39.5-52.1-63.6-16-26.6-25.3-58.4-31-90.4-9.3-54.2-7.4-116-13.3-171.3"/>
        <path class="st0" d="M106,1080.1c-3.7-51.3,100.8-88.4,93.3-139.2-4.7-31.4-11.8-62.5-15.6-93.8-2.6-20.6-4-41.1-4.1-61.7,0-32.2,3.4-64.8,11.5-96.3,4.9-19.3,11.5-38.1,20.3-56.1,18.6-38.2,46.1-71,64.1-109.5,11.6-24.9,19.7-53.8,15.2-78-1.6-8.5-4.2-15.5-7-22-5.4-12.6-11.8-23.5-22.1-36.3-1.9-2.4-4-4.8-6.1-7.3-15.5-18.1-33.3-39-50.1-56.7-19.1-20-38.7-38.5-53.6-62.3-16.6-26.3-26.2-57.9-32-90-9.8-53.8-7.8-115.7-13.8-170.9"/>
        <path class="st0" d="M103.7,1080.1c-3.8-49.4,100.7-85,93.2-134-4.8-31.8-12.1-63.2-16.4-94.9-2.8-20.8-4.5-41.6-4.7-62.5-.4-32.6,2.8-65.8,10.7-97.6,4.9-19.5,11.5-38.7,20.4-56.8,18.9-38.6,47.2-71.6,65.5-110.5,11.6-24.8,19.7-53.6,15.9-78-1.3-8.6-3.6-15.8-6-22.4-4.8-13.1-10.4-24.7-20.2-38-1.9-2.5-3.8-5-5.9-7.5-15.1-18.5-33.1-39.1-50.4-56.4s-39.8-37.5-55.3-61c-17.1-25.9-27-57.6-33-89.5-9.8-53.9-7.6-116-13.8-171"/>
        <path class="st0" d="M101.5,1080.1c-4-47.5,100.5-81.7,93.2-128.8-5-32.2-12.6-64-17.1-96-3-21.1-4.9-42.1-5.4-63.3-.8-33,2.1-66.7,10-99,4.8-19.8,11.5-39.2,20.6-57.6,19.2-39,48.3-72.2,66.9-111.6,11.7-24.8,19.6-53.3,16.6-77.9-1-8.6-3-16-5-22.9-4.1-13.7-8.9-25.9-18.3-39.6-1.8-2.6-3.7-5.1-5.7-7.7-14.6-18.9-33-39.2-50.6-56.1-20.1-19.2-40.9-36.6-56.9-59.8-17.7-25.6-27.9-57.2-34-89.1-10.3-53.5-8-115.8-14.3-170.7"/>
        <path class="st0" d="M99.3,1080.1c-4.1-45.7,100.3-78.4,93.1-123.6-5.2-32.6-13-64.7-17.8-97.1-3.2-21.3-5.4-42.6-6.1-64.1-1.1-33.5,1.4-67.6,9.2-100.4,4.8-20.1,11.5-39.7,20.8-58.3,19.6-39.5,49.4-72.8,68.3-112.7,11.7-24.7,19.5-53,17.4-77.9-.8-8.7-2.4-16.3-4-23.4-3.4-14.2-7.5-27.1-16.4-41.3-1.7-2.6-3.5-5.3-5.4-8-14.1-19.3-32.8-39.3-50.9-55.8-20.6-18.8-42.1-35.6-58.5-58.5-18.2-25.3-28.7-56.8-35.1-88.6-10.7-53.2-8.2-115.6-14.6-170.4"/>
        <path class="st0" d="M97,1080.1c-4.2-43.8,100.1-75.1,93-118.4-5.4-32.9-13.4-65.5-18.5-98.2-3.4-21.6-5.8-43.1-6.8-64.8-1.5-33.9.8-68.5,8.5-101.8,4.7-20.4,11.5-40.2,20.9-59.1,19.9-39.9,50.5-73.4,69.7-113.7,11.7-24.7,19.4-52.8,18.1-77.8-.5-8.8-1.7-16.5-3.1-23.9-2.7-14.7-6-28.3-14.5-43-1.6-2.7-3.4-5.4-5.2-8.2-13.7-19.7-32.7-39.4-51.2-55.5-21.1-18.3-43.2-34.6-60.1-57.2-18.7-25-29.6-56.4-36.1-88.2-10.7-53.1-8-115.7-14.7-170.3"/>
        <path class="st0" d="M94.8,1080.1c-4.3-41.9,99.9-71.7,92.9-113.2-5.6-33.3-13.8-66.2-19.2-99.3-3.6-21.8-6.3-43.7-7.5-65.6-1.9-34.3.1-69.5,7.8-103.1,4.7-20.7,11.5-40.8,21.1-59.8,20.2-40.4,51.6-74.1,71.1-114.8,11.7-24.7,19.3-52.5,18.8-77.8-.2-8.8-1.1-16.8-2.1-24.4-2-15.2-4.6-29.5-12.6-44.6-1.5-2.8-3.2-5.6-5-8.4-13.2-20.1-32.5-39.5-51.4-55.3-21.5-17.9-44.3-33.6-61.7-55.9-19.3-24.6-30.4-56-37.1-87.7-11.2-53-8.3-115.7-15.1-170.2"/>
        <path class="st0" d="M92.5,1080.1c-4.5-40.1,99.7-68.4,92.8-108.1-5.8-33.7-14.2-67-19.9-100.5-3.8-22.1-6.7-44.2-8.2-66.4-2.2-34.8-.6-70.4,7-104.5,4.6-20.9,11.5-41.3,21.2-60.5,20.6-40.8,52.7-74.7,72.5-115.8,11.7-24.6,19.3-52.2,19.5-77.7,0-8.9-.5-17-1.1-24.9-1.3-15.7-3.1-30.8-10.7-46.3-1.4-2.9-3-5.8-4.8-8.6-12.8-20.5-32.3-39.6-51.7-55-22-17.5-45.4-32.7-63.3-54.7-19.8-24.3-31.3-55.6-38.1-87.2-11.2-52.6-8.2-115.5-15.2-169.9"/>
        <path class="st0" d="M90.3,1080.1c-4.6-38.2,99.4-65.1,92.8-102.9-6-34.1-14.6-67.7-20.7-101.6-4-22.3-7.2-44.7-8.8-67.2-2.6-35.2-1.2-71.3,6.3-105.9,4.6-21.2,11.5-41.8,21.4-61.3,20.9-41.2,53.8-75.3,73.9-116.9,11.8-24.6,19.2-52,20.2-77.7.4-8.9.1-17.3-.1-25.4-.6-16.2-1.6-32-8.8-48-1.4-3-2.9-5.9-4.6-8.8-12.3-21-32.2-39.7-51.9-54.7-22.5-17.1-46.5-31.7-64.9-53.4-20.4-24-32.1-55.2-39.1-86.8-11.8-52.2-8.6-115.3-15.7-169.5"/>
        <path class="st0" d="M88.1,1080.1c-4.7-36.3,99.2-61.7,92.7-97.7s-15-68.4-21.4-102.7c-4.2-22.6-7.6-45.2-9.5-68-2.9-35.6-1.9-72.2,5.5-107.2,4.6-21.5,11.5-42.4,21.5-62,21.2-41.7,54.9-75.9,75.3-118,11.8-24.5,19.1-51.7,20.9-77.6.6-9,.8-17.5.8-25.9.1-16.7-.2-33.2-6.9-49.6-1.3-3.1-2.7-6.1-4.4-9-11.9-21.4-32-39.8-52.2-54.4-23-16.6-47.7-30.7-66.5-52.1-20.9-23.7-33-54.8-40.1-86.3-11.8-52.3-8.5-115.5-15.7-169.6"/>
        <path class="st0" d="M85.8,1080.1c-4.9-34.5,99-58.4,92.6-92.5-6.5-34.8-15.4-69.2-22.1-103.8-4.4-22.8-8.1-45.7-10.2-68.8-3.3-36.1-2.6-73.2,4.8-108.6,4.5-21.8,11.5-42.9,21.7-62.8,21.5-42.1,56-76.5,76.7-119,11.8-24.5,19-51.5,21.6-77.6.9-9.1,1.4-17.8,1.8-26.3.8-17.2,1.3-34.4-5-51.3-1.2-3.1-2.6-6.2-4.1-9.2-11.4-21.8-31.9-39.9-52.5-54.1-23.4-16.2-48.8-29.8-68.1-50.8-21.5-23.4-33.8-54.4-41.1-85.9-12.2-52-8.7-115.4-16.1-169.4"/>
        <path class="st0" d="M83.6,1080.1c-5-32.6,98.7-55.1,92.5-87.3-6.8-35.2-15.8-69.9-22.8-105-4.6-23.1-8.6-46.2-10.9-69.6-3.6-36.5-3.2-74.1,4.1-110,4.5-22,11.5-43.4,21.8-63.5,21.9-42.5,57.1-77.1,78.1-120.1,11.9-24.4,18.9-51.2,22.4-77.5,1.2-9.1,2-18,2.8-26.8,1.5-17.7,2.7-35.6-3.1-52.9-1.1-3.2-2.4-6.4-3.9-9.4-11-22.2-31.7-40-52.7-53.9-23.9-15.8-49.9-28.8-69.8-49.6-22-23-34.7-54-42.1-85.4-12.5-51.7-8.8-115.3-16.4-169.1"/>
        <path class="st0" d="M81.3,1080.1c-5.1-30.8,98.5-51.7,92.4-82.2-7.1-35.5-16.2-70.7-23.6-106.1-4.9-23.3-9-46.7-11.6-70.3-4-36.9-3.9-75,3.3-111.4,4.4-22.3,11.5-44,22-64.2,22.2-43,58.2-77.7,79.4-121.2,11.9-24.4,18.8-51,23.1-77.5,1.5-9.2,2.7-18.3,3.8-27.3,2.3-18.2,4.2-36.8-1.2-54.6-1-3.3-2.2-6.5-3.7-9.6-10.5-22.6-31.6-40.1-53-53.6-24.4-15.4-51-27.8-71.4-48.3-22.6-22.7-35.5-53.6-43.2-85-12.4-51.4-8.5-115.1-16.3-168.8"/>
        <path class="st0" d="M79.1,1080.1c-5.2-28.9,98.2-48.4,92.3-77-12.2-59.5-29.5-118-36.5-178.3s-3.2-123.8,24.7-177.7c22.5-43.4,59.3-78.3,80.8-122.2,16-32.8,22.8-69.2,28.5-105.2,3-18.7,5.6-38,.6-56.3-7.6-28-31.9-48.2-56.7-63.1-24.9-14.9-52.1-26.8-73-47-23.1-22.4-36.4-53.3-44.2-84.5-12.6-51.4-8.6-115.2-16.5-168.8"/>
      </g>
      <g>
        <path class="st0" d="M201.5,1080.1c-6.3-120.6-4.4-247.2-44.7-359.9-8.9-24.8-21-51.5-45.2-62-30.1-13-71.4,3-94-20.8-19.3-20.3-9.3-53.3,1.7-79,18.6-43.7,36.9-87.5,54.9-131.4,15.4-37.8,30.8-76.3,34.5-117,2.2-24.1,0-48.4-1.9-72.5C99.3,151.4,202.8,86.8,201.5,0"/>
        <path class="st0" d="M203.7,0c1.4,84.8-102.2,148-94.8,232.4,2.2,24.5,4.5,49.1,2.7,73.6-1.2,16.1-4.2,32-8.2,47.5-6.4,24.3-15.4,48.1-24.8,71.6-5.7,14.3-11.5,28.6-17.5,42.8-12.7,30.3-26,60.2-39,90.4-11,25.7-20.9,58.5-2.4,79,6.7,7.4,15.2,11.2,24.6,13.2,17.5,3.8,38,1.7,56.3,6.4,3.4.9,6.8,2,10,3.5,23.7,10.8,36.2,37.3,45.5,61.7,10.5,27.7,18.6,56.1,24.7,85.3,6.7,32,10.9,65,13.8,98.2,5,57.9,6,117,9.2,174.4"/>
        <path class="st0" d="M206,0c1.5,83-102.3,144.7-94.7,227.2,2.3,24.9,4.9,49.9,3.4,74.7-1,16.4-3.7,32.5-7.6,48.3-6,24.8-14.8,49-24,72.9-5.7,14.6-11.5,29.1-17.6,43.5-13,30.7-27.1,60.8-40.3,91.4-11,25.7-20.8,58.2-3.1,78.9,6.5,7.5,14.6,11.4,23.6,13.7,16.8,4.3,36.6,2.9,54.4,8.1,3.3,1,6.6,2.2,9.8,3.7,23.3,11.2,36,37.4,45.7,61.4,11,27.2,19.7,55.1,26.3,84,7.2,31.7,11.7,64.6,14.8,97.8,5.3,57.7,6.1,116.9,9.4,174.2"/>
        <path class="st0" d="M208.2,0c1.7,81.1-102.3,141.4-94.6,222,2.4,25.3,5.3,50.6,4.1,75.8-.8,16.6-3.3,33-6.9,49.1-5.7,25.2-14.1,50-23.3,74.3-5.6,14.9-11.5,29.6-17.8,44.3-13.3,31.1-28.2,61.4-41.8,92.5-11.1,25.6-20.8,58-3.8,78.9,6.2,7.6,14,11.6,22.6,14.2,16.1,4.7,35.1,4.1,52.5,9.8,3.3,1.1,6.5,2.3,9.6,3.9,22.8,11.6,35.9,37.5,46,61.1,11.5,26.8,20.8,54.1,27.9,82.8,7.8,31.4,12.6,64.2,15.8,97.3,5.5,57.5,6.2,116.9,9.7,174"/>
        <path class="st0" d="M210.5,0c1.8,79.2-102.3,138.1-94.5,216.9,2.5,25.6,5.7,51.3,4.8,76.9-.6,16.9-2.8,33.5-6.2,49.9-5.3,25.6-13.4,50.9-22.6,75.7-5.6,15.1-11.5,30.2-18,45-13.7,31.6-29.3,62-43.1,93.6-11.1,25.6-20.7,57.8-4.5,78.8,5.9,7.6,13.4,11.9,21.7,14.6,15.5,5.2,33.7,5.3,50.6,11.4,3.2,1.2,6.3,2.5,9.4,4.2,22.3,12,35.7,37.5,46.2,60.8,12,26.4,21.9,53.2,29.5,81.5,8.3,31.1,13.4,63.8,16.8,96.8,5.8,57.2,6.3,116.8,9.9,173.8"/>
        <path class="st0" d="M212.7,0c1.9,77.4-102.3,134.8-94.4,211.7,2.7,26,6.1,52.1,5.6,78.1-.4,17.1-2.4,34-5.5,50.7-4.9,26.1-12.8,51.8-21.8,77.1-5.5,15.4-11.5,30.7-18.1,45.8-14,32-30.5,62.6-44.5,94.6-11.1,25.5-20.7,57.5-5.2,78.8,5.6,7.7,12.8,12.1,20.7,15.1,14.8,5.7,32.2,6.5,48.7,13.1,3.1,1.2,6.2,2.7,9.2,4.4,21.9,12.5,35.5,37.7,46.5,60.6,12.4,26,23.1,52.2,31.1,80.2,8.9,30.8,14.3,63.4,17.8,96.4,6.1,57,6.4,116.7,10.2,173.6"/>
        <path class="st0" d="M214.9,0c2.1,75.5-102.3,131.5-94.4,206.5,2.8,26.4,6.5,52.8,6.3,79.2-.2,17.4-1.9,34.5-4.8,51.5-4.6,26.5-12.1,52.8-21.1,78.4-5.5,15.7-11.5,31.2-18.3,46.5-14.3,32.5-31.6,63.2-45.9,95.7-11.2,25.5-20.6,57.2-5.9,78.7,5.3,7.8,12.2,12.3,19.7,15.6,14.1,6.2,30.8,7.7,46.8,14.7,3,1.3,6,2.8,8.9,4.6,21.4,12.9,35.4,37.8,46.8,60.3,12.9,25.5,24.2,51.2,32.7,78.9,9.4,30.4,15.1,63,18.8,95.9,6.3,56.8,6.4,116.7,10.4,173.4"/>
        <path class="st0" d="M217.2,0c2.2,73.6-102.2,128.2-94.3,201.3,2.9,26.8,6.9,53.6,7,80.3,0,17.6-1.4,35-4.2,52.3-4.2,26.9-11.4,53.7-20.3,79.8-5.4,16-11.5,31.8-18.4,47.2-14.7,32.9-32.7,63.8-47.3,96.7-11.2,25.4-20.6,57-6.7,78.7,5,7.8,11.6,12.6,18.7,16.1,13.5,6.6,29.3,8.9,44.9,16.4,2.9,1.4,5.8,3,8.7,4.8,21,13.3,35.2,37.8,47,60,13.4,25.1,25.3,50.2,34.3,77.7,10,30.1,16,62.7,19.8,95.5,6.6,56.6,6.6,116.6,10.7,173.2"/>
        <path class="st0" d="M219.4,0c2.3,71.8-102.2,124.9-94.2,196.1,3,27.2,7.3,54.3,7.7,81.4.2,17.9-1,35.5-3.5,53.1-3.9,27.4-10.8,54.6-19.6,81.2-5.4,16.2-11.5,32.3-18.6,48-15,33.3-33.9,64.4-48.7,97.8-11.3,25.4-20.5,56.7-7.4,78.6,4.7,7.9,11,12.8,17.8,16.6,12.8,7.1,27.8,10.1,43,18.1,2.8,1.5,5.7,3.1,8.5,5,20.5,13.7,35,37.9,47.3,59.7,13.9,24.7,26.4,49.3,35.9,76.4,10.5,29.8,16.8,62.3,20.9,95,6.8,56.4,6.6,116.6,10.9,173.1"/>
        <path class="st0" d="M221.7,0c2.4,69.9-102.1,121.6-94.1,191,3.2,27.6,7.7,55.1,8.4,82.5.5,18.1-.5,36-2.8,53.8-3.5,27.8-10.1,55.5-18.9,82.5-5.3,16.5-11.5,32.8-18.7,48.7-15.3,33.8-35,65-50.1,98.9-11.3,25.3-20.4,56.5-8.1,78.5,4.4,7.9,10.4,13,16.8,17.1,12.1,7.6,26.4,11.3,41.1,19.7,2.8,1.6,5.5,3.3,8.3,5.2,20.1,14.1,34.9,38,47.5,59.4,14.4,24.3,27.5,48.3,37.6,75.1,11.1,29.5,17.7,61.9,21.9,94.6,7.1,56.1,6.7,116.5,11.2,172.9"/>
        <path class="st0" d="M223.9,0c2.6,68-102,118.2-94,185.8,3.3,28,8.1,55.8,9.2,83.7.7,18.4,0,36.5-2.1,54.6-3.1,28.2-9.4,56.5-18.1,83.9-5.3,16.8-11.5,33.4-18.9,49.5-15.6,34.2-36.1,65.6-51.5,99.9-11.4,25.3-20.4,56.2-8.8,78.5,4.2,8,9.7,13.3,15.8,17.6,11.5,8.1,24.9,12.6,39.2,21.4,2.7,1.7,5.4,3.4,8.1,5.4,19.6,14.5,34.7,38.1,47.8,59.2,14.8,23.8,28.7,47.3,39.2,73.8,11.6,29.2,18.5,61.5,22.9,94.1,7.4,55.9,6.8,116.4,11.4,172.7"/>
        <path class="st0" d="M226.1,0c2.7,66.2-101.9,114.9-94,180.6,3.4,28.3,8.5,56.5,9.9,84.8.9,18.6.4,37-1.4,55.4-2.8,28.7-8.8,57.4-17.4,85.3-5.3,17.1-11.5,33.9-19,50.2-16,34.7-37.2,66.2-52.9,101-11.4,25.2-20.3,56-9.5,78.5,3.9,8.1,9.1,13.5,14.8,18,10.8,8.6,23.5,13.8,37.3,23,2.6,1.7,5.2,3.6,7.8,5.6,19.2,14.9,34.6,38.2,48.1,58.9,15.3,23.4,29.8,46.3,40.8,72.5,12.2,28.8,19.4,61.1,23.9,93.7,7.6,55.7,6.9,116.4,11.7,172.5"/>
        <path class="st0" d="M228.4,0c2.8,64.3-101.8,111.6-93.9,175.4,3.6,28.7,8.9,57.3,10.6,85.9,1.1,18.9.8,37.5-.7,56.2-2.4,29.1-8.1,58.3-16.6,86.7-5.2,17.3-11.5,34.4-19.2,50.9-16.3,35.1-38.3,66.8-54.3,102-11.4,25.2-20.2,55.7-10.2,78.4,3.6,8.1,8.5,13.8,13.8,18.5,10.2,9.1,22,15,35.4,24.7,2.5,1.8,5.1,3.7,7.6,5.8,18.7,15.3,34.4,38.3,48.3,58.6,15.8,23,30.9,45.4,42.4,71.3,12.7,28.5,20.2,60.7,24.9,93.2,7.9,55.5,7,116.3,11.9,172.3"/>
        <path class="st0" d="M230.6,0c2.9,62.5-101.7,108.3-93.8,170.2,3.7,29.1,9.3,58,11.3,87,1.3,19.1,1.3,38.1,0,57-2.1,29.5-7.4,59.2-15.9,88-5.2,17.6-11.5,34.9-19.3,51.7-16.6,35.5-39.4,67.4-55.7,103.1-11.4,25.1-20.2,55.4-10.9,78.3,3.3,8.2,7.9,14,12.9,19,9.5,9.6,20.6,16.2,33.5,26.4,2.4,1.9,4.9,3.9,7.4,6,18.2,15.7,34.2,38.4,48.6,58.3,16.3,22.6,32,44.4,44,70,13.2,28.2,21.1,60.3,25.9,92.7,8.1,55.2,7.1,116.2,12.2,172.1"/>
        <path class="st0" d="M232.8,0c3.1,60.6-101.6,105-93.7,165.1,3.9,29.5,9.7,58.8,12,88.1,1.5,19.4,1.7,38.6.6,57.8-1.7,30-6.8,60.2-15.2,89.4-5.1,17.9-11.5,35.5-19.5,52.4-16.9,36-40.6,68-57.1,104.2-11.5,25.1-20.1,55.2-11.7,78.3,3,8.2,7.3,14.3,11.9,19.5,8.8,10.1,19.1,17.4,31.6,28,2.3,2,4.8,4,7.2,6.3,17.8,16.1,34.1,38.5,48.8,58,16.8,22.2,33.1,43.4,45.6,68.7,13.8,27.9,21.9,59.9,26.9,92.3,8.4,55,7.2,116.2,12.4,171.9"/>
        <path class="st0" d="M235.1,0c3.2,58.7-101.5,101.7-93.6,159.9,4,29.9,10.1,59.5,12.8,89.3,1.7,19.6,2.2,39.1,1.3,58.6-1.4,30.4-6.1,61.1-14.4,90.8-5.1,18.2-11.5,36-19.7,53.1-17.3,36.4-41.7,68.6-58.5,105.2-11.5,25-20,54.9-12.4,78.2,2.7,8.3,6.7,14.5,10.9,20,8.2,10.6,17.7,18.6,29.7,29.7,2.3,2.1,4.6,4.2,7,6.5,17.3,16.5,33.9,38.6,49.1,57.8,17.2,21.7,34.2,42.4,47.2,67.4,14.4,27.5,22.8,59.5,27.9,91.8,8.6,54.8,7.3,116.1,12.7,171.7"/>
        <path class="st0" d="M237.3,0c3.3,56.8-101.3,98.3-93.6,154.7,4.2,30.3,10.5,60.3,13.5,90.4,1.9,19.8,2.6,39.6,2,59.4-1,30.8-5.4,62-13.7,92.1-5,18.5-11.5,36.5-19.8,53.9-17.6,36.9-42.8,69.2-59.9,106.3-11.5,25-20,54.6-13.1,78.2,2.4,8.4,6.1,14.8,9.9,20.5,7.5,11.1,16.2,19.8,27.8,31.3,2.2,2.2,4.4,4.4,6.8,6.7,16.9,16.9,33.8,38.7,49.4,57.5,17.7,21.3,35.4,41.5,48.8,66.2,14.9,27.2,23.6,59.1,29,91.4,8.9,54.6,7.4,116.1,12.9,171.5"/>
        <path class="st0" d="M239.6,0c3.4,55-101.2,95-93.5,149.5,4.3,30.6,10.9,61,14.2,91.5,2.1,20.1,3.1,40.1,2.7,60.1-.6,31.3-4.8,63-12.9,93.5-5,18.7-11.5,37.1-20,54.6-17.9,37.3-43.9,69.8-61.3,107.4-11.6,25-19.9,54.4-13.8,78.1,2.2,8.4,5.5,15,9,21,6.8,11.6,14.8,21,25.9,33,2.1,2.2,4.3,4.5,6.5,6.9,16.4,17.3,33.6,38.8,49.6,57.2,18.2,20.9,36.5,40.5,50.4,64.9,15.4,26.9,24.5,58.7,30,90.9,9.2,54.4,7.5,116,13.2,171.3"/>
        <path class="st0" d="M241.8,0c3.6,53.1-101,91.7-93.4,144.3,4.5,31,11.4,61.7,14.9,92.6,2.3,20.3,3.6,40.6,3.4,60.9-.3,31.7-4.1,63.9-12.2,94.9-4.9,19-11.5,37.6-20.1,55.4-18.3,37.7-45,70.4-62.7,108.4-11.6,24.9-19.8,54.1-14.5,78.1,1.9,8.5,4.8,15.3,8,21.5,6.1,12.1,13.3,22.3,24,34.7,2,2.3,4.1,4.7,6.3,7.1,16,17.7,33.5,38.9,49.9,56.9,18.7,20.5,37.6,39.5,52.1,63.6,16,26.6,25.3,58.3,31,90.5,9.4,54.1,7.6,115.9,13.4,171.1"/>
        <path class="st0" d="M244,0c3.7,51.3-100.8,88.4-93.3,139.1,4.7,31.4,11.8,62.5,15.6,93.8,2.6,20.6,4,41.1,4.1,61.7,0,32.1-3.4,64.8-11.5,96.3-4.9,19.3-11.5,38.1-20.3,56.1-18.6,38.2-46.1,71-64.1,109.5-11.6,24.9-19.7,53.8-15.2,78,1.6,8.5,4.2,15.5,7,22,5.4,12.6,11.8,23.5,22.1,36.3,1.9,2.4,4,4.8,6.1,7.3,15.5,18.1,33.3,39,50.1,56.7,19.1,20,38.7,38.5,53.7,62.3,16.6,26.3,26.2,58,32,90,9.7,53.9,7.7,115.9,13.7,170.9"/>
        <path class="st0" d="M246.3,0c3.8,49.4-100.7,85-93.2,134,4.8,31.8,12.1,63.2,16.4,94.9,2.8,20.8,4.5,41.6,4.7,62.5.4,32.6-2.8,65.8-10.7,97.6-4.9,19.5-11.5,38.6-20.4,56.9-18.9,38.6-47.2,71.6-65.5,110.5-11.6,24.8-19.7,53.6-15.9,78,1.3,8.6,3.6,15.8,6,22.4,4.8,13.2,10.4,24.7,20.2,38,1.8,2.5,3.8,5,5.9,7.5,15.1,18.5,33.1,39.1,50.4,56.4,19.6,19.6,39.8,37.5,55.3,61,17.1,25.9,27,57.6,33,89.5,9.9,53.7,7.8,115.8,13.9,170.7"/>
        <path class="st0" d="M248.5,0c4,47.5-100.5,81.7-93.1,128.8,5,32.2,12.6,64,17.1,96,3,21.1,4.9,42.1,5.4,63.3.8,33-2.1,66.7-10,99-4.8,19.8-11.5,39.2-20.6,57.6-19.2,39-48.3,72.2-66.9,111.6-11.7,24.8-19.6,53.3-16.7,77.9,1,8.7,3,16,5,22.9,4.1,13.7,8.9,25.9,18.3,39.7,1.8,2.6,3.7,5.1,5.7,7.7,14.6,18.9,33,39.2,50.7,56.1,20.1,19.2,40.9,36.6,56.9,59.8,17.6,25.6,27.9,57.2,34,89.1,10.2,53.5,7.9,115.8,14.2,170.5"/>
        <path class="st0" d="M250.7,0c4.1,45.7-100.3,78.4-93.1,123.6,5.2,32.6,13,64.7,17.8,97.1,3.2,21.3,5.4,42.6,6.1,64.1,1.1,33.5-1.4,67.6-9.2,100.4-4.8,20.1-11.5,39.7-20.8,58.3-19.6,39.5-49.4,72.8-68.3,112.7-11.7,24.7-19.5,53-17.4,77.9.8,8.7,2.4,16.3,4,23.4,3.4,14.2,7.5,27.1,16.4,41.3,1.7,2.7,3.5,5.3,5.4,8,14.2,19.3,32.8,39.3,50.9,55.8,20.6,18.8,42.1,35.6,58.5,58.5,18.2,25.3,28.7,56.8,35.1,88.6,10.5,53.3,8,115.7,14.4,170.4"/>
        <path class="st0" d="M253,0c4.2,43.8-100.1,75.1-93,118.4,5.4,32.9,13.4,65.5,18.5,98.2,3.4,21.6,5.8,43.1,6.8,64.9,1.5,33.9-.8,68.5-8.5,101.8-4.7,20.4-11.5,40.2-20.9,59.1-19.9,39.9-50.5,73.4-69.7,113.7-11.7,24.7-19.4,52.8-18.1,77.8.5,8.8,1.7,16.5,3.1,23.9,2.7,14.7,6,28.3,14.5,43,1.6,2.7,3.3,5.4,5.2,8.2,13.7,19.7,32.7,39.4,51.2,55.5,21.1,18.3,43.2,34.6,60.1,57.2,18.7,25,29.6,56.4,36.1,88.2,10.7,53,8.1,115.6,14.7,170.2"/>
        <path class="st0" d="M255.2,0c4.4,41.9-99.9,71.7-92.9,113.2,5.6,33.3,13.8,66.2,19.2,99.4,3.6,21.8,6.3,43.6,7.5,65.6,1.9,34.3-.1,69.5-7.8,103.1-4.7,20.6-11.5,40.8-21.1,59.8-20.2,40.4-51.6,74.1-71.1,114.8-11.7,24.7-19.3,52.5-18.8,77.8.2,8.8,1.1,16.8,2.1,24.4,2,15.2,4.6,29.5,12.6,44.6,1.5,2.8,3.2,5.6,5,8.4,13.2,20.1,32.5,39.5,51.4,55.3,21.5,17.9,44.3,33.7,61.7,55.9,19.3,24.7,30.4,56,37.1,87.7,11,52.8,8.1,115.6,14.9,170"/>
        <path class="st0" d="M257.5,0c4.5,40.1-99.7,68.4-92.8,108.1,5.8,33.7,14.2,66.9,19.9,100.5,3.8,22.1,6.7,44.2,8.2,66.4,2.2,34.8.6,70.4-7,104.5-4.6,20.9-11.5,41.3-21.2,60.5-20.6,40.8-52.7,74.7-72.5,115.8-11.7,24.6-19.3,52.2-19.5,77.7,0,8.9.5,17,1.1,24.9,1.3,15.7,3.1,30.8,10.7,46.3,1.4,2.9,3,5.8,4.8,8.6,12.8,20.5,32.3,39.6,51.7,55,22,17.5,45.4,32.7,63.3,54.7,19.8,24.3,31.3,55.6,38.1,87.2,11.2,52.6,8.2,115.5,15.2,169.8"/>
        <path class="st0" d="M259.7,0c4.6,38.2-99.4,65.1-92.8,102.9,6,34.1,14.6,67.7,20.7,101.6,4,22.3,7.2,44.7,8.8,67.2,2.6,35.2,1.2,71.3-6.3,105.9-4.6,21.2-11.5,41.8-21.4,61.3-20.9,41.2-53.8,75.3-73.9,116.9-11.8,24.6-19.2,52-20.2,77.7-.4,8.9,0,17.3,0,25.4.6,16.2,1.7,32,8.8,48,1.3,3,2.9,5.9,4.6,8.8,12.3,21,32.2,39.7,52,54.7,22.5,17.1,46.5,31.7,64.9,53.4,20.4,24,32.1,55.2,39.1,86.8,11.5,52.4,8.3,115.4,15.4,169.6"/>
        <path class="st0" d="M261.9,0c4.7,36.3-99.2,61.7-92.7,97.7,6.3,34.4,15,68.4,21.4,102.7,4.2,22.6,7.6,45.2,9.5,68,2.9,35.6,1.9,72.2-5.5,107.2-4.6,21.5-11.5,42.4-21.5,62-21.2,41.7-54.9,75.9-75.3,118-11.8,24.5-19.1,51.7-20.9,77.6-.6,9-.8,17.5-.8,25.8,0,16.7.2,33.2,6.9,49.6,1.3,3.1,2.7,6.1,4.3,9,11.9,21.4,32,39.8,52.2,54.4,23,16.6,47.7,30.7,66.5,52.1,20.9,23.7,33,54.8,40.1,86.3,11.8,52.2,8.4,115.4,15.7,169.4"/>
        <path class="st0" d="M264.2,0c4.9,34.5-99,58.4-92.6,92.5,6.5,34.8,15.4,69.2,22.1,103.8,4.4,22.8,8.1,45.7,10.2,68.8,3.3,36.1,2.6,73.2-4.8,108.6-4.5,21.8-11.5,42.9-21.7,62.8-21.5,42.1-56,76.5-76.7,119-11.8,24.5-19,51.5-21.6,77.6-.9,9.1-1.4,17.8-1.8,26.3-.8,17.2-1.3,34.4,5,51.3,1.2,3.1,2.6,6.2,4.1,9.2,11.4,21.8,31.9,39.9,52.5,54.2,23.4,16.2,48.8,29.8,68.1,50.8,21.5,23.4,33.8,54.4,41.1,85.9,12,51.9,8.5,115.3,15.9,169.2"/>
        <path class="st0" d="M266.4,0c5,32.6-98.7,55-92.5,87.3,6.8,35.2,15.8,69.9,22.8,105,4.6,23.1,8.6,46.2,10.9,69.6,3.6,36.5,3.2,74.1-4.1,110-4.5,22-11.5,43.4-21.8,63.5-21.9,42.5-57.1,77.1-78.1,120.1-11.8,24.4-18.9,51.2-22.4,77.5-1.2,9.1-2,18-2.8,26.8-1.6,17.7-2.7,35.6,3.2,52.9,1.1,3.2,2.4,6.4,3.9,9.4,11,22.2,31.7,40,52.7,53.9,23.9,15.8,49.9,28.8,69.8,49.6,22,23,34.7,54,42.1,85.4,12.3,51.7,8.6,115.3,16.2,169"/>
        <path class="st0" d="M268.7,0c5.1,30.8-98.5,51.7-92.4,82.2,7.1,35.5,16.2,70.7,23.6,106.1,4.9,23.3,9,46.7,11.6,70.4,4,36.9,3.9,75-3.3,111.4-4.4,22.3-11.5,44-22,64.2-22.2,43-58.2,77.7-79.4,121.2-11.9,24.4-18.8,51-23.1,77.5-1.5,9.2-2.7,18.3-3.8,27.3-2.3,18.2-4.2,36.8,1.2,54.6,1,3.3,2.2,6.5,3.7,9.6,10.5,22.6,31.5,40.1,53,53.6,24.4,15.4,51,27.8,71.4,48.3,22.6,22.7,35.5,53.7,43.2,85,12.6,51.5,8.7,115.2,16.4,168.8"/>
        <path class="st0" d="M270.9,0c5.2,28.9-98.2,48.4-92.3,77,12.2,59.5,29.5,118,36.5,178.3s3.2,123.8-24.7,177.7c-22.5,43.4-59.3,78.3-80.8,122.2-16,32.8-22.8,69.2-28.5,105.2-3,18.7-5.6,38-.7,56.3,7.7,28,31.9,48.2,56.7,63.2,24.9,14.9,52.1,26.8,73,47,23.1,22.4,36.4,53.3,44.2,84.5,12.8,51.3,8.8,115.1,16.7,168.6"/>
      </g>
    </g>
  </g>
</svg>