<?xml version="1.0" encoding="UTF-8"?>
<svg id="Lag_2" xmlns="http://www.w3.org/2000/svg" version="1.1" viewBox="0 0 1080 350">
  <!-- Generator: Adobe Illustrator 29.0.1, SVG Export Plug-In . SVG Version: 2.1.0 Build 192)  -->
  <defs>
    <style>
      .st0 {
        fill: none;
        stroke: #0100d4;
        stroke-miterlimit: 10;
      }
    </style>
  </defs>
  <g id="Lag_1-2">
    <g>
      <path class="st0" d="M1080,112.4c-120.6,6.3-247.2,4.4-359.9,44.7-24.8,8.9-51.5,21-62,45.2-13,30.1,3,71.4-20.8,94-20.3,19.3-53.3,9.3-79-1.7-43.7-18.6-87.5-36.9-131.4-54.9-37.8-15.4-76.3-30.8-117-34.5-24.1-2.1-48.3-.1-72.5,1.9C151.3,214.5,86.7,111.1,0,112.4"/>
      <path class="st0" d="M0,110.1c84.8-1.4,148,102.2,232.4,94.8,24.5-2.2,49.1-4.5,73.6-2.7,16.1,1.2,32,4.2,47.5,8.2,24.3,6.4,48.1,15.4,71.6,24.8,14.3,5.7,28.6,11.5,42.8,17.5,30.3,12.7,60.2,26,90.4,38.9,25.7,11,58.5,20.9,79,2.4,7.4-6.7,11.2-15.2,13.2-24.6,3.8-17.5,1.6-38,6.4-56.3.9-3.4,2-6.8,3.5-10,10.8-23.7,37.3-36.2,61.7-45.5,27.7-10.5,56.1-18.6,85.3-24.7,32-6.7,65-10.9,98.2-13.8,57.9-5,117-6,174.4-9.2"/>
      <path class="st0" d="M0,107.9c83-1.5,144.7,102.3,227.2,94.7,24.9-2.3,49.8-4.9,74.7-3.4,16.4,1,32.5,3.7,48.3,7.6,24.8,6,49,14.8,73,24.1,14.6,5.6,29.1,11.5,43.5,17.6,30.7,13,60.8,27.1,91.4,40.3,25.7,11,58.2,20.8,78.9,3.1,7.5-6.5,11.4-14.6,13.7-23.6,4.3-16.8,2.9-36.6,8.1-54.4,1-3.4,2.2-6.6,3.7-9.8,11.2-23.3,37.4-36,61.4-45.7,27.2-11,55.1-19.7,84-26.3,31.7-7.2,64.6-11.7,97.8-14.8,57.7-5.3,116.9-6.1,174.2-9.4"/>
      <path class="st0" d="M0,105.6c81.1-1.7,141.4,102.3,222,94.6,25.3-2.4,50.6-5.3,75.8-4.1,16.6.8,33,3.3,49.1,6.9,25.2,5.6,50,14.1,74.3,23.3,14.9,5.6,29.6,11.5,44.3,17.8,31.2,13.4,61.4,28.2,92.5,41.8,25.6,11.1,58,20.8,78.9,3.8,7.6-6.2,11.6-14,14.1-22.6,4.7-16.1,4.1-35.1,9.8-52.5,1.1-3.3,2.4-6.5,3.9-9.6,11.6-22.8,37.5-35.8,61.1-46,26.8-11.5,54.1-20.8,82.8-27.9,31.4-7.8,64.2-12.6,97.3-15.8,57.5-5.5,116.9-6.2,174-9.7"/>
      <path class="st0" d="M0,103.4c79.2-1.8,138.1,102.3,216.9,94.5,25.7-2.5,51.3-5.7,76.9-4.8,16.9.6,33.5,2.8,49.9,6.2,25.6,5.3,50.9,13.4,75.7,22.6,15.1,5.6,30.2,11.5,45,17.9,31.6,13.7,62,29.3,93.6,43.1,25.6,11.1,57.8,20.7,78.8,4.5,7.6-5.9,11.9-13.4,14.6-21.7,5.2-15.5,5.3-33.7,11.4-50.6,1.1-3.2,2.5-6.3,4.1-9.4,12-22.4,37.5-35.7,60.8-46.2,26.4-12,53.2-21.9,81.5-29.5,31.1-8.3,63.8-13.4,96.9-16.8,57.2-5.8,116.8-6.3,173.8-9.9"/>
      <path class="st0" d="M0,101.2c77.4-1.9,134.8,102.3,211.7,94.4,26-2.7,52.1-6.1,78.1-5.6,17.1.4,34,2.4,50.7,5.5,26.1,4.9,51.8,12.8,77.1,21.8,15.4,5.5,30.7,11.5,45.8,18.1,32,14,62.6,30.4,94.6,44.5,25.5,11.1,57.5,20.7,78.8,5.2,7.7-5.6,12.1-12.8,15.1-20.7,5.7-14.8,6.5-32.2,13.1-48.7,1.2-3.1,2.7-6.2,4.4-9.1,12.5-21.9,37.6-35.5,60.6-46.5,26-12.4,52.2-23.1,80.2-31.1,30.8-8.9,63.4-14.3,96.4-17.8,57-6,116.7-6.4,173.6-10.2"/>
      <path class="st0" d="M0,98.9c75.5-2,131.5,102.3,206.5,94.4,26.4-2.8,52.8-6.5,79.2-6.3,17.4.2,34.5,1.9,51.5,4.8,26.5,4.6,52.8,12.1,78.4,21.1,15.7,5.5,31.2,11.5,46.5,18.3,32.5,14.3,63.2,31.6,95.7,45.9,25.5,11.2,57.2,20.6,78.7,5.9,7.8-5.3,12.3-12.2,15.6-19.7,6.2-14.1,7.7-30.8,14.7-46.8,1.3-3,2.8-6,4.6-8.9,12.9-21.4,37.8-35.4,60.3-46.8,25.5-12.9,51.2-24.2,78.9-32.7,30.4-9.4,63-15.1,95.9-18.8,56.8-6.3,116.7-6.5,173.5-10.4"/>
      <path class="st0" d="M0,96.7c73.6-2.2,128.2,102.2,201.3,94.3,26.8-2.9,53.6-6.9,80.3-7,17.6,0,35,1.4,52.3,4.1,26.9,4.2,53.7,11.4,79.8,20.4,16,5.4,31.8,11.5,47.2,18.4,32.9,14.7,63.8,32.7,96.7,47.3,25.4,11.2,57,20.6,78.7,6.7,7.8-5,12.6-11.6,16.1-18.7,6.6-13.5,8.9-29.3,16.4-44.9,1.4-2.9,3-5.9,4.8-8.7,13.3-21,37.8-35.2,60-47,25.1-13.4,50.2-25.3,77.6-34.3,30.1-10,62.6-16,95.5-19.8,56.6-6.6,116.6-6.6,173.2-10.7"/>
      <path class="st0" d="M0,94.5c71.8-2.3,124.9,102.2,196.1,94.2,27.2-3,54.3-7.3,81.4-7.7,17.9-.2,35.5,1,53.1,3.5,27.4,3.9,54.6,10.8,81.2,19.6,16.2,5.4,32.3,11.5,48,18.6,33.3,15,64.4,33.9,97.8,48.7,25.4,11.3,56.7,20.5,78.6,7.4,7.9-4.7,12.8-11,16.6-17.8,7.1-12.8,10.1-27.9,18.1-43,1.5-2.9,3.1-5.7,5-8.5,13.7-20.5,37.9-35.1,59.7-47.3,24.7-13.9,49.3-26.4,76.4-35.9,29.8-10.5,62.3-16.8,95-20.8,56.3-6.8,116.5-6.6,173-10.9"/>
      <path class="st0" d="M0,92.2c69.9-2.4,121.6,102.1,191,94.1,27.6-3.2,55-7.7,82.5-8.4,18.1-.5,36,.5,53.8,2.8,27.8,3.5,55.5,10.1,82.5,18.9,16.5,5.4,32.8,11.5,48.7,18.7,33.8,15.3,65,35,98.9,50.1,25.3,11.3,56.5,20.4,78.5,8.1,7.9-4.4,13-10.4,17.1-16.8,7.6-12.1,11.4-26.4,19.7-41.1,1.6-2.8,3.3-5.5,5.2-8.3,14.1-20.1,38-34.9,59.4-47.5,24.3-14.4,48.3-27.5,75.1-37.6,29.5-11.1,61.9-17.7,94.6-21.9,56.1-7.1,116.5-6.7,172.9-11.2"/>
      <path class="st0" d="M0,90c68-2.6,118.2,102,185.8,94,28-3.3,55.8-8.1,83.7-9.1,18.4-.7,36.5,0,54.6,2.1,28.2,3.1,56.5,9.4,83.9,18.1,16.8,5.3,33.3,11.5,49.5,18.9,34.2,15.6,65.6,36.1,99.9,51.5,25.3,11.4,56.2,20.4,78.5,8.8,8-4.1,13.3-9.7,17.6-15.8,8.1-11.5,12.6-24.9,21.4-39.2,1.6-2.7,3.4-5.4,5.4-8.1,14.5-19.6,38.1-34.7,59.2-47.8,23.9-14.8,47.3-28.7,73.8-39.2,29.1-11.6,61.5-18.5,94.1-22.9,55.9-7.3,116.4-6.8,172.7-11.4"/>
      <path class="st0" d="M0,87.7c66.2-2.7,114.9,101.9,180.6,94,28.3-3.4,56.5-8.5,84.8-9.9,18.6-.9,37-.4,55.4,1.4,28.7,2.8,57.4,8.8,85.3,17.4,17.1,5.3,33.9,11.5,50.2,19,34.7,16,66.2,37.2,101,52.9,25.2,11.4,56,20.3,78.5,9.5,8.1-3.9,13.5-9.1,18-14.8,8.6-10.8,13.8-23.5,23-37.3,1.7-2.6,3.6-5.2,5.6-7.8,14.9-19.2,38.2-34.6,58.9-48.1,23.4-15.3,46.3-29.8,72.5-40.8,28.8-12.2,61.1-19.4,93.6-23.9,55.7-7.6,116.4-6.9,172.5-11.7"/>
      <path class="st0" d="M0,85.5c64.3-2.8,111.6,101.8,175.4,93.9,28.7-3.6,57.3-8.9,85.9-10.6,18.8-1.1,37.5-.8,56.2.7,29.1,2.4,58.3,8.1,86.7,16.6,17.3,5.2,34.4,11.5,50.9,19.2,35.1,16.3,66.8,38.3,102,54.3,25.2,11.4,55.7,20.2,78.4,10.2,8.1-3.6,13.8-8.5,18.5-13.8,9.1-10.1,15-22,24.7-35.4,1.8-2.5,3.7-5.1,5.8-7.6,15.3-18.7,38.3-34.4,58.6-48.3,23-15.8,45.4-30.9,71.3-42.4,28.5-12.7,60.7-20.2,93.2-24.9,55.4-7.9,116.3-7,172.3-11.9"/>
      <path class="st0" d="M0,83.3c62.5-2.9,108.3,101.7,170.2,93.8,29.1-3.7,58-9.3,87-11.3,19.1-1.3,38.1-1.3,57,0,29.5,2.1,59.2,7.4,88,15.9,17.6,5.2,34.9,11.5,51.7,19.4,35.5,16.6,67.4,39.4,103.1,55.7,25.1,11.4,55.4,20.2,78.3,10.9,8.2-3.3,14-7.9,19-12.9,9.6-9.5,16.2-20.6,26.4-33.5,1.9-2.4,3.9-4.9,6-7.4,15.7-18.2,38.4-34.2,58.3-48.6,22.6-16.3,44.4-32,70-44,28.2-13.2,60.3-21.1,92.7-25.9,55.2-8.1,116.2-7.1,172.1-12.2"/>
      <path class="st0" d="M0,81c60.6-3.1,105,101.6,165.1,93.7,29.5-3.9,58.8-9.7,88.2-12,19.3-1.5,38.6-1.7,57.8-.6,30,1.7,60.2,6.8,89.4,15.2,17.9,5.1,35.5,11.5,52.4,19.5,36,16.9,68,40.6,104.2,57.1,25.1,11.5,55.2,20.1,78.3,11.6,8.2-3,14.3-7.3,19.5-11.9,10.1-8.8,17.4-19.1,28-31.6,2-2.4,4-4.8,6.3-7.2,16.1-17.8,38.5-34.1,58-48.8,22.1-16.8,43.4-33.1,68.7-45.6,27.9-13.8,59.9-21.9,92.3-26.9,55-8.4,116.2-7.2,171.9-12.4"/>
      <path class="st0" d="M0,78.8c58.7-3.2,101.7,101.5,159.9,93.6,29.9-4,59.5-10.1,89.3-12.8,19.6-1.7,39.1-2.2,58.6-1.3,30.4,1.3,61.1,6.1,90.8,14.4,18.2,5.1,36,11.5,53.2,19.7,36.4,17.3,68.6,41.7,105.2,58.5,25,11.5,54.9,20,78.2,12.4,8.3-2.7,14.5-6.7,20-10.9,10.6-8.1,18.6-17.7,29.7-29.7,2.1-2.3,4.2-4.6,6.5-7,16.5-17.3,38.6-33.9,57.8-49.1,21.7-17.2,42.4-34.2,67.4-47.2,27.5-14.3,59.5-22.8,91.8-28,54.8-8.7,116.1-7.3,171.7-12.7"/>
      <path class="st0" d="M0,76.5c56.8-3.3,98.3,101.3,154.7,93.6,30.3-4.2,60.3-10.5,90.4-13.5,19.8-1.9,39.6-2.6,59.3-2,30.8,1,62,5.4,92.2,13.7,18.5,5,36.5,11.5,53.9,19.8,36.8,17.6,69.2,42.8,106.3,59.9,25,11.5,54.6,20,78.2,13.1,8.4-2.4,14.8-6.1,20.5-9.9,11.1-7.5,19.8-16.2,31.4-27.8,2.1-2.2,4.4-4.4,6.7-6.8,16.9-16.9,38.7-33.8,57.5-49.3,21.3-17.7,41.5-35.4,66.2-48.8,27.2-14.9,59.1-23.6,91.4-29,54.6-8.9,116.1-7.4,171.5-13"/>
      <path class="st0" d="M0,74.3c55-3.5,95,101.2,149.5,93.5,30.7-4.3,61-10.9,91.5-14.2,20.1-2.1,40.1-3.1,60.1-2.7,31.3.6,63,4.8,93.5,12.9,18.7,5,37.1,11.5,54.6,20,37.3,17.9,69.8,43.9,107.4,61.3,25,11.6,54.4,19.9,78.1,13.8,8.4-2.2,15-5.5,21-8.9,11.6-6.8,21-14.8,33-25.9,2.2-2.1,4.5-4.3,6.9-6.5,17.3-16.4,38.8-33.6,57.2-49.6,20.9-18.2,40.5-36.5,64.9-50.4,26.9-15.5,58.7-24.5,90.9-30,54.4-9.2,116-7.5,171.3-13.2"/>
      <path class="st0" d="M0,72.1c53.1-3.6,91.7,101,144.3,93.4,31-4.5,61.7-11.3,92.6-14.9,20.3-2.3,40.6-3.6,60.9-3.4,31.7.3,63.9,4.1,94.9,12.2,19,4.9,37.6,11.5,55.4,20.1,37.7,18.3,70.4,45,108.4,62.7,24.9,11.6,54.1,19.8,78.1,14.5,8.5-1.9,15.3-4.9,21.5-8,12.1-6.1,22.3-13.3,34.7-24,2.3-2,4.7-4.1,7.1-6.3,17.7-16,38.9-33.5,56.9-49.9,20.5-18.7,39.5-37.6,63.6-52.1,26.6-16,58.4-25.3,90.4-31,54.1-9.4,115.9-7.6,171.1-13.4"/>
      <path class="st0" d="M0,69.8c51.3-3.7,88.4,100.8,139.2,93.3,31.4-4.7,62.5-11.8,93.8-15.6,20.6-2.6,41.1-4,61.7-4.1,32.2,0,64.8,3.4,96.3,11.5,19.3,4.9,38.1,11.5,56.1,20.3,38.2,18.6,71,46.1,109.5,64.1,24.9,11.6,53.8,19.7,78,15.2,8.5-1.6,15.5-4.2,22-7,12.6-5.4,23.5-11.8,36.3-22.1,2.4-1.9,4.8-4,7.3-6.1,18.1-15.5,39-33.3,56.7-50.1,20-19.1,38.5-38.7,62.3-53.7,26.3-16.5,57.9-26.2,90-32,53.9-9.7,115.9-7.7,170.9-13.7"/>
      <path class="st0" d="M0,67.6c49.4-3.8,85,100.7,134,93.2,31.8-4.8,63.2-12.2,94.9-16.3,20.8-2.8,41.6-4.5,62.5-4.7,32.6-.4,65.8,2.8,97.6,10.7,19.5,4.9,38.7,11.5,56.8,20.4,38.6,18.9,71.6,47.2,110.5,65.5,24.8,11.6,53.6,19.7,78,15.9,8.6-1.3,15.8-3.6,22.4-6,13.1-4.8,24.7-10.4,38-20.2,2.5-1.9,5-3.8,7.5-5.9,18.5-15.1,39.1-33.1,56.4-50.4,19.6-19.6,37.5-39.8,61-55.3,25.9-17.1,57.6-27,89.5-33,53.7-10,115.8-7.8,170.8-13.9"/>
      <path class="st0" d="M0,65.4c47.5-4,81.7,100.5,128.8,93.2,32.2-5,64-12.6,96-17.1,21.1-3,42.1-4.9,63.3-5.4,33-.8,66.7,2.1,99,10,19.8,4.8,39.2,11.5,57.6,20.6,39,19.2,72.2,48.3,111.6,66.9,24.8,11.7,53.3,19.6,77.9,16.6,8.6-1,16-3,22.9-5,13.7-4.1,25.9-8.9,39.6-18.3,2.6-1.8,5.1-3.7,7.7-5.7,18.9-14.6,39.2-33,56.1-50.6,19.2-20.1,36.6-40.9,59.8-56.9,25.6-17.7,57.2-27.9,89.1-34,53.5-10.2,115.8-7.9,170.6-14.2"/>
      <path class="st0" d="M0,63.1c45.7-4.1,78.4,100.3,123.6,93.1,32.6-5.2,64.7-13,97.1-17.8,21.3-3.2,42.6-5.4,64.1-6.1,33.5-1.2,67.6,1.4,100.4,9.2,20.1,4.8,39.7,11.5,58.3,20.8,39.5,19.6,72.8,49.4,112.7,68.3,24.7,11.7,53,19.5,77.9,17.4,8.7-.8,16.3-2.4,23.4-4.1,14.2-3.4,27.1-7.5,41.3-16.4,2.6-1.7,5.3-3.5,8-5.4,19.3-14.1,39.3-32.8,55.8-50.9,18.8-20.6,35.6-42.1,58.5-58.5,25.3-18.2,56.8-28.7,88.6-35,53.3-10.5,115.7-8,170.4-14.4"/>
      <path class="st0" d="M0,60.9c43.8-4.2,75.1,100.1,118.4,93,32.9-5.4,65.5-13.4,98.2-18.5,21.6-3.4,43.1-5.8,64.8-6.8,33.9-1.5,68.5.8,101.8,8.5,20.4,4.7,40.2,11.5,59.1,20.9,39.9,19.9,73.4,50.5,113.7,69.7,24.7,11.7,52.8,19.4,77.8,18.1,8.8-.5,16.5-1.7,23.9-3.1,14.7-2.7,28.3-6,43-14.5,2.7-1.6,5.4-3.4,8.2-5.2,19.7-13.7,39.4-32.7,55.5-51.2,18.3-21.1,34.6-43.2,57.2-60.1,25-18.7,56.4-29.6,88.2-36.1,53-10.7,115.6-8.1,170.2-14.7"/>
      <path class="st0" d="M0,58.6c41.9-4.4,71.7,99.9,113.2,92.9,33.3-5.6,66.2-13.8,99.3-19.2,21.8-3.6,43.7-6.3,65.6-7.5,34.3-1.9,69.5.1,103.1,7.8,20.7,4.7,40.8,11.5,59.8,21.1,40.4,20.2,74.1,51.6,114.8,71.1,24.7,11.7,52.5,19.3,77.8,18.8,8.8-.2,16.8-1.1,24.4-2.1,15.2-2,29.5-4.6,44.6-12.6,2.8-1.5,5.6-3.2,8.4-5,20.1-13.2,39.5-32.5,55.3-51.4,17.9-21.5,33.6-44.3,55.9-61.7,24.6-19.3,56-30.4,87.7-37.1,52.8-11,115.6-8.2,170-15"/>
      <path class="st0" d="M0,56.4c40.1-4.5,68.4,99.7,108.1,92.8,33.7-5.8,67-14.2,100.5-20,22.1-3.8,44.2-6.7,66.4-8.2,34.8-2.2,70.4-.6,104.5,7,20.9,4.6,41.3,11.5,60.5,21.2,40.8,20.5,74.7,52.7,115.8,72.5,24.6,11.7,52.2,19.3,77.7,19.5,8.9,0,17-.5,24.9-1.1,15.7-1.3,30.8-3.1,46.3-10.7,2.9-1.4,5.8-3,8.6-4.8,20.5-12.8,39.6-32.3,55-51.7,17.5-22,32.7-45.4,54.7-63.3,24.3-19.8,55.6-31.3,87.2-38.1,52.6-11.2,115.5-8.2,169.8-15.2"/>
      <path class="st0" d="M0,54.2c38.2-4.6,65.1,99.4,102.9,92.7,34.1-6,67.7-14.6,101.6-20.7,22.3-4,44.7-7.2,67.2-8.8,35.2-2.6,71.3-1.2,105.9,6.3,21.2,4.6,41.8,11.5,61.3,21.4,41.2,20.9,75.3,53.8,116.9,73.9,24.6,11.8,52,19.2,77.7,20.2,8.9.4,17.3.1,25.4-.1,16.2-.6,32-1.6,48-8.8,3-1.4,5.9-2.9,8.8-4.6,21-12.3,39.7-32.2,54.7-51.9,17.1-22.5,31.7-46.5,53.4-64.9,24-20.4,55.2-32.1,86.8-39.1,52.4-11.5,115.4-8.3,169.6-15.5"/>
      <path class="st0" d="M0,51.9c36.3-4.7,61.7,99.2,97.7,92.7,34.4-6.3,68.4-15,102.7-21.4,22.6-4.2,45.2-7.6,68-9.5,35.6-2.9,72.2-1.9,107.2,5.5,21.5,4.6,42.4,11.5,62,21.5,41.7,21.2,75.9,54.9,118,75.3,24.5,11.8,51.7,19.1,77.6,20.9,9,.6,17.5.8,25.9.8,16.7.1,33.2-.2,49.6-6.9,3.1-1.3,6.1-2.7,9-4.4,21.4-11.9,39.8-32,54.4-52.2,16.6-23,30.7-47.7,52.1-66.5,23.7-20.9,54.8-33,86.3-40.1,52.1-11.8,115.4-8.4,169.4-15.7"/>
      <path class="st0" d="M0,49.7c34.5-4.9,58.4,99,92.5,92.6,34.8-6.5,69.2-15.4,103.8-22.1,22.8-4.4,45.7-8.1,68.8-10.2,36.1-3.3,73.2-2.6,108.6,4.8,21.8,4.5,42.9,11.5,62.8,21.7,42.1,21.5,76.5,56,119,76.7,24.5,11.8,51.5,19,77.6,21.6,9.1.9,17.8,1.4,26.3,1.8,17.2.8,34.4,1.3,51.3-5,3.1-1.2,6.2-2.6,9.2-4.1,21.8-11.4,39.9-31.9,54.1-52.5,16.2-23.4,29.8-48.8,50.8-68.1,23.4-21.5,54.4-33.8,85.9-41.1,51.9-12,115.3-8.5,169.2-15.9"/>
      <path class="st0" d="M0,47.5c32.6-5,55.1,98.7,87.3,92.5,35.2-6.8,69.9-15.8,105-22.8,23.1-4.6,46.2-8.6,69.6-10.9,36.5-3.7,74.1-3.2,110,4.1,22,4.5,43.4,11.5,63.5,21.8,42.5,21.8,77.1,57.1,120.1,78.1,24.4,11.9,51.2,18.9,77.5,22.4,9.1,1.2,18,2,26.8,2.8,17.7,1.6,35.6,2.7,52.9-3.1,3.2-1.1,6.4-2.4,9.4-3.9,22.2-11,40-31.7,53.9-52.7,15.8-23.9,28.8-49.9,49.6-69.8,23-22,54-34.7,85.4-42.1,51.7-12.3,115.2-8.6,169-16.2"/>
      <path class="st0" d="M0,45.2c30.8-5.1,51.7,98.5,82.2,92.4,35.5-7.1,70.7-16.2,106.1-23.5,23.3-4.8,46.7-9,70.3-11.6,36.9-4,75-3.9,111.4,3.3,22.3,4.4,44,11.5,64.2,22,43,22.2,77.7,58.2,121.2,79.4,24.4,11.9,51,18.8,77.5,23.1,9.2,1.5,18.3,2.7,27.3,3.8,18.2,2.3,36.8,4.2,54.6-1.3,3.3-1,6.5-2.2,9.6-3.7,22.6-10.5,40.1-31.6,53.6-53,15.4-24.4,27.8-51,48.3-71.4,22.7-22.6,53.6-35.5,85-43.2,51.5-12.5,115.2-8.7,168.8-16.4"/>
      <path class="st0" d="M0,43c28.9-5.2,48.4,98.2,77,92.3,59.5-12.2,118-29.5,178.3-36.5s123.8-3.2,177.7,24.7c43.4,22.5,78.3,59.3,122.2,80.8,32.8,16,69.2,22.8,105.2,28.5,18.7,3,38,5.6,56.3.6,28-7.6,48.2-31.9,63.1-56.7,14.9-24.9,26.8-52.1,47-73,22.4-23.1,53.3-36.4,84.5-44.2,51.3-12.8,115.1-8.8,168.6-16.7"/>
    </g>
  </g>
</svg>