<?xml version="1.0" encoding="UTF-8"?>
<svg id="Skitse" xmlns="http://www.w3.org/2000/svg" viewBox="0 0 130 160">
  <defs>
    <style>
      .cls-1 {
        fill: none;
      }

      .cls-1, .cls-2 {
        stroke: #1d1d1b;
        stroke-miterlimit: 10;
      }

      .cls-3 {
        fill: #49b0d4;
      }

      .cls-4 {
        fill: #f2b800;
      }

      .cls-2 {
        fill: #1d1d1b;
      }
    </style>
  </defs>
  <path class="cls-4" d="M17.17,76.63c-1.87,2.89-5.03,9.46-6.44,12.12-1.25,4.27-3.96,11.04-4.78,15.68.14,3.06-.25,13.52.12,18.36,1.19,6.59,3.5,16.21,5.36,22.32,1.21,3.26,4.25,9.01,5.28,11.4.28.58.42.81.55.89,2.26.23,72.94-.05,94.76.06.78-.1.67.41,1.53-1.18.22-.39.5-.91.82-1.51,1.69-3.45,3.1-5.11,4.08-8.48,1.14-3.71,2.94-8.39,3.6-11.02.65-5.2,1.87-11.69,2.04-16.85,0-2.17,0-6.72,0-8.61-.6-5.95-1.98-10.55-3.55-16.33-.98-5.07-4.02-10.43-6.32-15.14-.64-1.15-.66-1.63-1.52-1.94-1.06-.22-4.79-.49-8.78-.91-4.14-.46-7.5-.6-9.39-1.02-1.13-.72-.99-2.93-1.39-4.23-.31-2.15-1.09-3.1-2.74-3.78-2.87-.93-4.18-4.44-5.83-6.75-.43-.56-.59-.73-1.15-.76-4.09.01-25.49-.02-34.25,0-1.96-.16-1.69.53-2.85,3.05-1.34,4.46-3.19,3.21-6.62,3.63-2.5.64-3.25,3.86-3.83,6.08-.34,1.22-.08,2.93-1.5,3.2-2.77.42-13,.86-17.08,1.62l-.12.09Z"/>
  <path class="cls-1" d="M80.04,57.92v-5.51c-34,.73-44.07-4.96-32.08-40.29"/>
  <rect class="cls-2" x="44.21" y="3" width="31.17" height="9.12" rx="1.72" ry="1.72"/>
  <path class="cls-3" d="M86.39,123.77c-.95.94-3.06.89-6.66.91-7.03,0-16.19,0-23.55,0-2.87,0-5.54.02-8.25-.03-4-.08-4.87-.75-4.99-4.6-.13-9.09-.01-19.52-.05-28.48-.03-8-.1-8.52,7.63-8.4,9.41,0,20.78-.01,30.4,0,7.89-.5,6.19,3.3,6.45,8.84,0,7.55,0,16.44,0,23.82-.02,4.23.1,6.76-.86,7.82l-.11.11Z"/>
  <path class="cls-3" d="M111.18,84.16c-3.34-1.92-10.76-.64-14.73-.98-2.32.19-3.89-.35-4.73,1.37-.55,7.04-.05,29.64-.2,37.19.03.83.02,1.69.47,2.26,2.23,1.37,8.54.41,12.27.68,4.53-.05,9.18.11,11.73-.1,1.47-.14,2.72-.92,3.16-2.32,1.58-7.53.07-14.99-1.77-22.87-1.18-4.75-3.15-11.75-5.98-15.06l-.22-.18Z"/>
  <path class="cls-3" d="M18.9,84.92c3.38-2.32,10.73-1.14,14.83-1.38,2.42.19,4-.17,4.8,1.74.66,7.21.09,28.6.24,36.3.02,3.77-1.83,3.36-6.24,3.44-4.83-.04-11.08.09-16.11-.06-3.96-.31-5.4-1.28-5.81-4.69-.57-6.36-.75-12.98,1.06-19.14,2.01-5.97,3.03-12.32,7.01-16.04l.25-.18Z"/>
</svg>