<?xml version="1.0" encoding="UTF-8"?>
<svg id="Lag_2" data-name="Lag 2" xmlns="http://www.w3.org/2000/svg" viewBox="0 0 36.91 48.76">
  <defs>
    <style>
      .cls-1, .cls-2 {
        fill: #11008d;
      }

      .cls-2, .cls-3 {
        stroke: #11008d;
        stroke-miterlimit: 10;
      }

      .cls-4 {
        fill: #fff;
      }

      .cls-3 {
        fill: none;
      }
    </style>
  </defs>
  <g id="Lag_1-2" data-name="Lag 1">
    <g>
      <path class="cls-1" d="M3.52,23.5c-.58.9-1.57,2.95-2.01,3.79-.39,1.33-1.24,3.45-1.49,4.9.04.96-.08,4.22.04,5.73.37,2.06,1.09,5.06,1.67,6.97.38,1.02,1.33,2.81,1.65,3.56.09.18.13.25.17.28.71.07,22.78-.02,29.6.02.24-.03.21.13.48-.37.07-.12.16-.28.26-.47.53-1.08.97-1.6,1.27-2.65.36-1.16.92-2.62,1.12-3.44.2-1.62.58-3.65.64-5.26v-2.69c-.19-1.86-.62-3.3-1.11-5.1-.31-1.58-1.26-3.26-1.97-4.73-.2-.36-.21-.51-.47-.61-.33-.07-1.5-.15-2.74-.28-1.29-.14-2.34-.19-2.93-.32-.35-.22-.31-.92-.43-1.32-.1-.67-.34-.97-.86-1.18-.9-.29-1.31-1.39-1.82-2.11-.13-.17-.18-.23-.36-.24-1.28,0-7.96,0-10.7,0-.61-.05-.53.17-.89.95-.42,1.39-1,1-2.07,1.13-.78.2-1.02,1.21-1.2,1.9-.11.38-.02.92-.47,1-.87.13-4.06.27-5.33.51l-.04.03h0Z"/>
      <path class="cls-3" d="M23.16,17.65v-1.72c-10.62.23-13.77-1.55-10.02-12.58"/>
      <rect class="cls-2" x="11.96" y=".5" width="9.74" height="2.85" rx=".54" ry=".54"/>
      <path class="cls-4" d="M25.14,38.22c-.3.29-.96.28-2.08.28h-7.36c-.9,0-1.73,0-2.58,0-1.25-.02-1.52-.23-1.56-1.44-.04-2.84,0-6.1-.02-8.9,0-2.5-.03-2.66,2.38-2.62,2.94,0,6.49,0,9.5,0,2.46-.16,1.93,1.03,2.01,2.76v7.44c0,1.32.03,2.11-.27,2.44l-.03.03h0Z"/>
      <path class="cls-4" d="M32.88,25.85c-1.04-.6-3.36-.2-4.6-.31-.72.06-1.22-.11-1.48.43-.17,2.2-.02,9.26-.06,11.62,0,.26,0,.53.15.71.7.43,2.67.13,3.83.21,1.41-.02,2.87.03,3.66-.03.46-.04.85-.29.99-.72.49-2.35.02-4.68-.55-7.14-.37-1.48-.98-3.67-1.87-4.7l-.07-.06h0Z"/>
      <path class="cls-4" d="M4.06,26.09c1.06-.72,3.35-.36,4.63-.43.76.06,1.25-.05,1.5.54.21,2.25.03,8.93.07,11.34,0,1.18-.57,1.05-1.95,1.07-1.51-.01-3.46.03-5.03-.02-1.24-.1-1.69-.4-1.81-1.46-.18-1.99-.23-4.05.33-5.98.63-1.86.95-3.85,2.19-5.01l.08-.06h0Z"/>
    </g>
  </g>
</svg>